<svg width="14" height="25" viewBox="0 0 14 25" fill="none" xmlns="http://www.w3.org/2000/svg">
<path d="M0 1.79856V2.15827C0 2.8777 0.512195 3.41727 1.19512 3.41727C1.70732 3.41727 2.04878 3.05755 2.21951 2.51799L2.56098 1.61871L12.1219 5.7554L5.46341 10.6115C4.78049 11.1511 4.78049 11.8705 4.95122 12.5899L6.4878 16.3669L4.26829 23.3813C3.92683 24.2806 4.60976 25 5.29268 25C5.80488 25 6.14634 24.8201 6.31707 24.1007L8.70732 16.9065L8.87805 17.446V23.741C8.87805 23.741 8.87805 25 10.0732 25C11.2683 25 11.2683 23.741 11.2683 23.741V17.8058C11.2683 17.446 11.2683 17.2662 11.0976 16.9065L8.70732 10.7914L13.3171 7.3741C13.6585 7.01439 14 6.83453 14 6.29496C14 5.7554 13.6585 5.39568 13.3171 5.21583L1.02439 0C0.874146 0 0.822926 0.0323741 0.682927 0.179856L0 1.79856ZM3.58537 5.21583C2.21951 5.21583 1.02439 6.47482 1.02439 7.91367C1.02439 9.35252 2.21951 10.6115 3.58537 10.6115C4.95122 10.6115 6.14634 9.35252 6.14634 7.91367C6.14634 6.47482 4.95122 5.21583 3.58537 5.21583Z" fill="white"/>
</svg>
