<svg width="388" height="255" viewBox="0 0 388 255" fill="none" xmlns="http://www.w3.org/2000/svg">
<g clip-path="url(#clip0_176_76)">
<mask id="mask0_176_76" style="mask-type:luminance" maskUnits="userSpaceOnUse" x="0" y="0" width="388" height="255">
<path d="M388 0H0V255H388V0Z" fill="white"/>
</mask>
<g mask="url(#mask0_176_76)">
<path d="M76.2229 185.948C85.9244 179.074 107.772 189.16 105.201 202.088C99.9485 201.632 95.054 198.874 90.6273 196.206C85.7305 193.254 80.1829 190.123 76.2229 185.948Z" fill="#00A39B"/>
<path d="M76.2229 185.949C82.2696 183.457 89.4889 183.833 95.1403 187.188C100.194 190.188 105.363 195.808 105.201 202.088C94.5799 199.365 85.451 191.51 76.2229 185.949Z" fill="#02B9B4"/>
<path d="M105.201 202.088C102.385 200.17 99.4371 198.513 96.528 196.749C94.9768 195.807 89.8836 191.636 94.2768 190.609C99.1461 189.47 103.793 198.551 105.201 202.088Z" fill="#00A39B"/>
<path d="M94.8598 192.336C89.3337 188.771 82.9755 186.566 76.4218 186.022C83.0368 186.934 89.4557 189.528 94.9539 193.305C97.6179 195.135 100.081 197.263 102.301 199.613C102.888 200.234 108.193 206.997 108.237 206.972C108.933 206.575 103.777 200.022 103.225 199.407C100.775 196.68 97.9447 194.312 94.8598 192.336Z" fill="white"/>
<path d="M86.3574 162.998C85.3427 162.478 83.926 161.713 83.569 160.537C83.1917 159.294 84.6042 159.067 85.4679 159.335C87.75 160.046 89.5251 162.23 90.3869 164.384C89.0144 164.229 87.5737 163.629 86.3574 162.998Z" fill="#71BF9D"/>
<path d="M105.648 191.493C104.365 191.355 102.972 190.366 103.017 188.956C103.065 187.433 104.359 187.306 105.505 187.855C106.164 188.169 106.726 188.642 107.226 189.17C107.486 189.444 107.724 189.733 107.942 190.041C108.069 190.219 108.388 190.537 108.417 190.755C108.445 190.967 108.503 190.748 108.378 190.942C108.268 191.113 107.812 191.245 107.635 191.305C107 191.524 106.311 191.568 105.648 191.493Z" fill="#3C8460"/>
<path d="M101.566 184.362C100.239 184.156 98.3077 183.593 97.5909 182.329C97.099 181.462 97.5776 180.549 98.5257 180.397C99.8344 180.189 101.423 180.836 102.522 181.491C103.747 182.221 104.85 183.19 105.791 184.256C104.508 184.755 102.888 184.575 101.566 184.362Z" fill="#3C8460"/>
<path d="M98.7646 178.502C97.6151 178.454 95.9198 178.142 95.1971 177.128C94.7266 176.467 94.9832 175.665 95.7536 175.439C96.8026 175.131 98.1633 175.518 99.1317 175.921C100.242 176.383 101.445 177.13 102.312 177.972C101.279 178.526 99.9024 178.555 98.7646 178.502Z" fill="#3C8460"/>
<path d="M94.9768 173.529C93.9973 173.795 92.5081 173.928 91.7023 173.149C91.191 172.655 91.278 171.916 91.8556 171.536C92.6458 171.016 93.8413 171.021 94.7386 171.131C95.7508 171.255 96.7643 171.639 97.677 172.086C97.0271 172.855 95.9156 173.275 94.9768 173.529Z" fill="#3C8460"/>
<path d="M91.2931 169.152C90.3636 169.379 89.1301 169.482 88.2898 168.914C87.7613 168.557 87.5583 167.87 88.0944 167.424C88.7769 166.857 90.0092 166.852 90.8319 166.95C91.8756 167.073 93.0104 167.391 93.9473 167.877C93.2747 168.572 92.2049 168.928 91.2931 169.152Z" fill="#3C8460"/>
<path d="M112.577 190.091C113.647 188.902 113.999 186.899 112.858 185.633C111.929 184.603 110.976 185.079 110.45 186.198C109.727 187.732 109.677 189.611 109.764 191.278C109.772 191.44 109.736 191.528 109.845 191.58C110.033 191.668 110.602 191.429 110.761 191.369C111.463 191.106 112.077 190.646 112.577 190.091Z" fill="#3C8460"/>
<path d="M109.709 181.357C110.292 179.853 110.56 177.745 109.675 176.298C109.138 175.42 108.022 174.901 107.384 175.943C106.642 177.152 106.649 178.979 106.668 180.342C106.688 181.828 106.86 183.36 107.129 184.823C108.366 184.123 109.192 182.62 109.709 181.357Z" fill="#3C8460"/>
<path d="M105.388 175.285C105.72 173.996 105.749 172.33 104.976 171.179C104.565 170.567 103.599 170.042 103.07 170.808C102.427 171.739 102.613 173.326 102.71 174.374C102.836 175.752 103.203 177.119 103.584 178.446C104.537 177.723 105.094 176.403 105.388 175.285Z" fill="#3C8460"/>
<path d="M101.034 169.69C101.412 168.646 101.48 167.288 100.858 166.316C100.489 165.741 99.5998 165.222 99.0344 165.842C98.3992 166.538 98.4776 167.89 98.5287 168.75C98.5989 169.929 98.9221 171.053 99.2439 172.181C100.116 171.666 100.705 170.612 101.034 169.69Z" fill="#3C8460"/>
<path d="M96.2981 165.337C96.4035 164.306 96.204 163.111 95.5407 162.283C95.067 161.691 94.0265 161.291 93.7081 162.246C93.3784 163.235 93.7712 164.593 94.0953 165.534C94.3988 166.414 94.7939 167.29 95.2267 168.114C95.9074 167.397 96.1856 166.289 96.2981 165.337Z" fill="#3C8460"/>
<path d="M86.3571 162.998C85.6352 162.628 84.8923 162.191 84.3095 161.622C83.8621 161.184 83.2325 160.396 83.6242 159.739C85.9631 161.183 88.2375 162.666 90.3865 164.384C89.014 164.23 87.5734 163.629 86.3571 162.998Z" fill="#3C8460"/>
<path d="M105.648 191.493C104.378 191.356 102.954 190.365 103.016 188.956C104.08 189.295 105.136 189.659 106.183 190.048C106.707 190.244 107.225 190.458 107.748 190.657C107.823 190.685 108.486 190.87 108.483 190.864C107.715 191.478 106.59 191.599 105.648 191.493Z" fill="#71BF9D"/>
<path d="M101.566 184.362C100.268 184.16 97.422 183.381 97.3954 181.664C100.282 181.906 103.179 183.061 105.792 184.256C104.509 184.755 102.888 184.575 101.566 184.362Z" fill="#71BF9D"/>
<path d="M98.7643 178.502C97.6296 178.455 95.171 178.049 94.9706 176.595C97.4173 176.73 99.9743 177.23 102.312 177.972C101.279 178.525 99.9021 178.555 98.7643 178.502Z" fill="#71BF9D"/>
<path d="M94.9767 173.529C94.0151 173.79 91.9362 174.001 91.4505 172.789C93.523 172.51 95.5952 172.284 97.6771 172.087C97.0271 172.855 95.9156 173.275 94.9767 173.529Z" fill="#71BF9D"/>
<path d="M91.2928 169.152C90.3262 169.388 88.4096 169.578 87.8595 168.451C89.8786 168.209 91.9115 167.938 93.9468 167.877C93.2741 168.572 92.2046 168.928 91.2928 169.152Z" fill="#71BF9D"/>
<path d="M112.576 190.091C113.646 188.904 114.001 186.898 112.858 185.633C112.029 187.703 111.056 189.745 109.783 191.582C110.855 191.561 111.884 190.859 112.576 190.091Z" fill="#71BF9D"/>
<path d="M109.709 181.357C110.328 179.759 110.758 176.697 109.018 175.588C108.34 178.657 107.844 181.76 107.128 184.823C108.365 184.123 109.191 182.62 109.709 181.357Z" fill="#71BF9D"/>
<path d="M105.387 175.285C105.731 173.954 105.86 171.256 104.293 170.56C104.155 173.181 104.13 175.867 103.584 178.446C104.537 177.723 105.093 176.402 105.387 175.285Z" fill="#71BF9D"/>
<path d="M101.034 169.69C101.456 168.524 101.564 166.4 100.238 165.721C100.129 166.275 99.388 172.202 99.2438 172.181C100.116 171.666 100.704 170.612 101.034 169.69Z" fill="#71BF9D"/>
<path d="M96.2984 165.338C96.4166 164.181 96.1118 162.132 94.7839 161.71C94.9546 163.844 95.1462 165.975 95.2267 168.115C95.9074 167.398 96.1858 166.289 96.2984 165.338Z" fill="#71BF9D"/>
<path d="M112.676 186.181C112.608 186.108 112.11 187.187 112.04 187.33C111.773 187.868 111.494 188.402 111.207 188.93C110.659 189.936 110.079 190.925 109.486 191.906C109.249 191.186 109.012 190.466 108.773 189.746C108.581 189.169 108.354 188.606 108.127 188.042C107.958 187.625 107.792 187.206 107.626 186.787C107.453 186.348 107.087 185.814 107.209 185.359C107.698 183.544 108.114 181.724 108.432 179.87C108.514 179.395 108.592 178.919 108.666 178.443C108.704 178.203 108.74 177.962 108.772 177.722C108.8 177.515 108.927 177.096 108.866 176.901C108.74 176.497 108.662 177.215 108.646 177.328C108.571 177.844 108.489 178.359 108.401 178.872C108.033 181.009 107.549 183.127 106.926 185.204C106.265 183.808 105.575 182.438 104.84 181.08C104.571 180.582 104.295 180.093 103.995 179.613C103.829 179.348 103.73 179.224 103.725 178.922C103.72 178.663 103.805 178.371 103.84 178.112C103.911 177.57 103.973 177.026 104.026 176.481C104.132 175.375 104.203 174.266 104.248 173.156C104.259 172.874 104.269 172.592 104.277 172.309C104.282 172.138 104.358 171.815 104.294 171.669C104.103 171.236 104.117 172.293 104.112 172.4C104.003 174.515 103.784 176.624 103.44 178.713C102.583 177.326 101.654 175.984 100.674 174.681C100.34 174.238 99.9993 173.799 99.6524 173.365C99.5902 173.288 99.2734 172.975 99.2594 172.88C99.2482 172.806 99.4227 172.36 99.4467 172.234C99.5511 171.683 99.636 171.132 99.714 170.577C99.791 170.032 99.8664 169.487 99.932 168.941C99.9904 168.455 100.044 167.968 100.094 167.481C100.104 167.386 100.244 166.333 100.018 166.549C99.9377 166.625 99.9578 167.039 99.9408 167.172C99.9057 167.448 99.8694 167.722 99.8314 167.997C99.7565 168.54 99.6774 169.082 99.59 169.622C99.429 170.618 99.267 171.617 99.0365 172.6C98.2865 171.607 97.38 170.646 96.5205 169.746C96.223 169.435 95.8943 169.15 95.606 168.831C95.356 168.554 95.4269 168.246 95.4113 167.866C95.3425 166.191 95.2482 164.472 94.944 162.821C94.9585 162.901 94.8998 162.362 94.7701 162.518C94.6863 162.619 94.8051 163.09 94.8181 163.22C94.8753 163.793 94.9291 164.367 94.975 164.942C95.0653 166.073 95.1237 167.208 95.1172 168.344C92.1972 165.409 88.8367 162.855 85.2927 160.727C84.7819 160.42 84.7267 160.543 85.2234 160.854C85.6793 161.139 86.1306 161.43 86.5777 161.728C87.4719 162.325 88.3483 162.947 89.2063 163.595C90.9219 164.889 92.5624 166.282 94.1209 167.763C92.9794 167.796 91.8389 167.882 90.7014 167.98C90.1479 168.027 89.5951 168.076 89.0447 168.152C88.7486 168.193 88.3197 168.365 88.8917 168.328C90.1161 168.25 91.3353 168.149 92.5621 168.103C93.0979 168.083 93.704 168 94.2357 168.081C94.5169 168.123 94.5467 168.192 94.754 168.402C95.3384 168.994 95.9449 169.568 96.5041 170.184C97.0339 170.767 97.5499 171.364 98.0727 171.954C96.3984 172.041 94.7195 172.167 93.0599 172.409C92.9136 172.43 92.1751 172.457 92.1999 172.614C92.2244 172.772 93.0012 172.59 93.1396 172.574C93.9796 172.478 94.8248 172.424 95.6691 172.378C96.0986 172.354 96.5278 172.334 96.9575 172.318C97.3073 172.305 97.9332 172.169 98.2658 172.28C98.7293 172.434 99.2968 173.445 99.6359 173.877C100.665 175.188 101.638 176.543 102.552 177.937C101.455 177.631 100.34 177.391 99.2272 177.15C98.6832 177.032 98.1378 176.925 97.5885 176.835C97.3135 176.789 97.0379 176.748 96.7622 176.707C96.6108 176.685 96.0671 176.52 95.9399 176.592C95.682 176.738 96.7111 176.865 96.8132 176.882C97.3853 176.98 97.9525 177.089 98.5183 177.217C99.5397 177.449 100.56 177.693 101.571 177.971C101.905 178.062 102.542 178.129 102.807 178.35C102.923 178.446 103.011 178.676 103.089 178.802C103.334 179.194 103.578 179.586 103.822 179.978C104.682 181.359 105.497 182.828 106.155 184.313C104.612 183.628 103.002 183.091 101.396 182.573C100.608 182.32 99.8057 182.112 99.0034 181.91C98.9061 181.885 98.336 181.67 98.5062 181.923C98.6283 182.104 99.4886 182.202 99.7107 182.265C101.403 182.744 103.096 183.332 104.715 184.021C105.103 184.186 105.489 184.356 105.874 184.528C106.072 184.617 106.275 184.677 106.404 184.839C106.538 185.007 106.616 185.284 106.708 185.479C107.071 186.244 107.384 187.024 107.704 187.807C108.125 188.837 108.503 189.872 108.862 190.924C107.625 190.437 106.383 189.978 105.112 189.587C104.781 189.485 104.45 189.386 104.118 189.289C103.946 189.239 103.483 189.001 103.328 189.064C103.101 189.155 103.482 189.267 103.523 189.282C103.857 189.405 104.204 189.5 104.543 189.612C105.8 190.027 107.029 190.502 108.248 191.018C108.406 191.085 108.564 191.153 108.722 191.221C108.965 191.326 108.946 191.322 109.072 191.546C109.203 191.78 109.248 192.099 109.327 192.356C109.535 193.032 109.732 193.713 109.915 194.396C110.265 195.695 110.569 197.008 110.826 198.328C110.892 198.668 111.398 201.997 111.477 201.987C111.81 201.944 110.336 195.027 110.175 194.381C110.089 194.038 110.001 193.696 109.909 193.354C109.864 193.184 109.817 193.013 109.77 192.843C109.688 192.545 109.634 192.434 109.729 192.155C109.938 191.538 110.429 190.915 110.739 190.338C111.109 189.65 111.472 188.957 111.819 188.256C111.955 187.983 112.875 186.397 112.676 186.181Z" fill="#A4D6C0"/>
<path d="M245.042 158.844C244.73 157.746 244.322 156.186 244.937 155.123C245.587 153.999 246.717 154.878 247.11 155.694C248.148 157.851 247.764 160.641 246.779 162.741C245.955 161.63 245.411 160.165 245.042 158.844Z" fill="#71BF9D"/>
<path d="M237.397 192.411C236.623 191.378 236.394 189.683 237.455 188.754C238.6 187.751 239.575 188.612 239.956 189.826C240.176 190.523 240.214 191.257 240.17 191.983C240.148 192.36 240.098 192.732 240.023 193.102C239.979 193.316 239.964 193.767 239.824 193.937C239.689 194.102 239.888 193.995 239.661 194.036C239.462 194.071 239.055 193.827 238.889 193.739C238.297 193.423 237.795 192.948 237.397 192.411Z" fill="#3C8460"/>
<path d="M239.819 184.557C239.064 183.445 238.157 181.646 238.591 180.259C238.889 179.307 239.883 179.035 240.64 179.626C241.685 180.443 242.296 182.048 242.568 183.299C242.87 184.695 242.915 186.164 242.779 187.58C241.539 186.981 240.565 185.672 239.819 184.557Z" fill="#3C8460"/>
<path d="M242.186 178.508C241.437 177.634 240.508 176.179 240.756 174.958C240.917 174.163 241.678 173.803 242.369 174.214C243.31 174.772 243.955 176.033 244.322 177.017C244.741 178.145 245.016 179.536 244.993 180.745C243.884 180.366 242.923 179.378 242.186 178.508Z" fill="#3C8460"/>
<path d="M243.233 172.341C242.371 171.805 241.258 170.805 241.277 169.683C241.289 168.972 241.888 168.532 242.56 168.696C243.478 168.92 244.29 169.799 244.822 170.531C245.422 171.357 245.833 172.361 246.129 173.335C245.124 173.383 244.059 172.856 243.233 172.341Z" fill="#3C8460"/>
<path d="M243.916 166.657C243.116 166.131 242.2 165.297 242.041 164.295C241.941 163.664 242.305 163.047 242.996 163.136C243.876 163.249 244.72 164.148 245.21 164.817C245.831 165.666 246.373 166.714 246.658 167.732C245.691 167.713 244.701 167.172 243.916 166.657Z" fill="#3C8460"/>
<path d="M243.146 196.531C244.744 196.505 246.447 195.397 246.593 193.698C246.711 192.315 245.714 191.942 244.538 192.319C242.925 192.836 241.519 194.081 240.361 195.28C240.248 195.397 240.159 195.431 240.196 195.546C240.259 195.744 240.823 195.997 240.974 196.073C241.645 196.408 242.4 196.544 243.146 196.531Z" fill="#3C8460"/>
<path d="M247.566 188.474C249.062 187.875 250.783 186.634 251.237 184.999C251.512 184.007 251.13 182.836 249.933 183.079C248.544 183.36 247.215 184.611 246.233 185.554C245.161 186.583 244.16 187.753 243.275 188.947C244.63 189.376 246.291 188.956 247.566 188.474Z" fill="#3C8460"/>
<path d="M249.052 181.166C250.22 180.531 251.456 179.417 251.769 178.065C251.935 177.346 251.661 176.281 250.74 176.416C249.621 176.58 248.59 177.799 247.89 178.584C246.97 179.616 246.223 180.817 245.513 182.001C246.691 182.206 248.035 181.713 249.052 181.166Z" fill="#3C8460"/>
<path d="M250.167 174.161C251.187 173.726 252.225 172.85 252.51 171.731C252.679 171.069 252.451 170.064 251.613 170.072C250.671 170.081 249.737 171.061 249.144 171.685C248.332 172.54 247.731 173.543 247.127 174.548C248.098 174.835 249.269 174.548 250.167 174.161Z" fill="#3C8460"/>
<path d="M250.114 167.722C250.939 167.096 251.676 166.135 251.828 165.084C251.937 164.334 251.519 163.299 250.605 163.717C249.658 164.15 248.934 165.364 248.468 166.243C248.033 167.065 247.663 167.952 247.356 168.831C248.344 168.841 249.343 168.289 250.114 167.722Z" fill="#3C8460"/>
<path d="M245.042 158.843C244.819 158.062 244.632 157.22 244.65 156.404C244.664 155.778 244.811 154.78 245.558 154.619C246.099 157.317 246.568 159.994 246.779 162.741C245.955 161.63 245.411 160.165 245.042 158.843Z" fill="#3C8460"/>
<path d="M237.397 192.411C236.631 191.388 236.383 189.669 237.454 188.754C237.932 189.764 238.388 190.786 238.817 191.818C239.032 192.335 239.228 192.861 239.44 193.38C239.47 193.454 239.788 194.066 239.79 194.059C238.818 193.915 237.962 193.174 237.397 192.411Z" fill="#71BF9D"/>
<path d="M239.819 184.557C239.081 183.469 237.708 180.853 238.944 179.662C240.736 181.942 241.869 184.852 242.779 187.581C241.539 186.981 240.565 185.672 239.819 184.557Z" fill="#71BF9D"/>
<path d="M242.186 178.508C241.446 177.644 240.066 175.567 240.991 174.428C242.561 176.313 243.94 178.527 244.993 180.745C243.884 180.366 242.923 179.377 242.186 178.508Z" fill="#71BF9D"/>
<path d="M243.233 172.341C242.387 171.814 240.815 170.436 241.368 169.253C242.985 170.581 244.564 171.945 246.128 173.335C245.124 173.383 244.059 172.855 243.233 172.341Z" fill="#71BF9D"/>
<path d="M243.916 166.656C243.084 166.11 241.638 164.836 242.086 163.664C243.64 164.978 245.224 166.282 246.657 167.731C245.691 167.712 244.701 167.172 243.916 166.656Z" fill="#71BF9D"/>
<path d="M243.146 196.531C244.742 196.505 246.449 195.398 246.592 193.698C244.516 194.502 242.361 195.182 240.152 195.502C240.898 196.273 242.113 196.548 243.146 196.531Z" fill="#71BF9D"/>
<path d="M247.566 188.474C249.155 187.838 251.684 186.065 251.307 184.033C248.604 185.63 246 187.383 243.275 188.947C244.629 189.375 246.291 188.956 247.566 188.474Z" fill="#71BF9D"/>
<path d="M249.052 181.166C250.257 180.51 252.315 178.765 251.755 177.142C249.747 178.829 247.769 180.642 245.513 182C246.691 182.206 248.035 181.713 249.052 181.166Z" fill="#71BF9D"/>
<path d="M250.167 174.161C251.307 173.675 252.93 172.306 252.522 170.871C252.043 171.169 247.21 174.668 247.127 174.548C248.098 174.836 249.269 174.548 250.167 174.161Z" fill="#71BF9D"/>
<path d="M250.114 167.723C251.04 167.021 252.328 165.4 251.73 164.14C250.288 165.72 248.863 167.313 247.356 168.831C248.343 168.841 249.343 168.289 250.114 167.723Z" fill="#71BF9D"/>
<path d="M246.068 193.937C246.075 193.837 244.947 194.209 244.795 194.254C244.22 194.426 243.64 194.586 243.058 194.735C241.949 195.02 240.832 195.27 239.711 195.505C240.075 194.84 240.439 194.175 240.802 193.509C241.092 192.975 241.349 192.425 241.605 191.874C241.795 191.465 241.988 191.058 242.181 190.651C242.383 190.225 242.523 189.592 242.939 189.372C244.598 188.492 246.211 187.555 247.782 186.524C248.184 186.26 248.586 185.993 248.984 185.722C249.185 185.586 249.385 185.449 249.583 185.308C249.753 185.187 250.146 184.995 250.246 184.817C250.455 184.449 249.878 184.882 249.784 184.947C249.356 185.244 248.925 185.535 248.489 185.821C246.678 187.009 244.801 188.098 242.86 189.058C243.428 187.621 243.958 186.182 244.448 184.718C244.628 184.181 244.796 183.645 244.943 183.098C245.024 182.796 245.046 182.638 245.263 182.429C245.449 182.248 245.721 182.112 245.933 181.961C246.378 181.643 246.817 181.318 247.251 180.984C248.132 180.309 248.989 179.604 249.831 178.88C250.045 178.696 250.257 178.51 250.469 178.324C250.598 178.21 250.885 178.046 250.948 177.899C251.134 177.464 250.372 178.195 250.29 178.264C248.671 179.627 246.982 180.906 245.221 182.078C245.65 180.504 245.996 178.908 246.279 177.302C246.375 176.754 246.463 176.206 246.543 175.656C246.557 175.558 246.57 175.112 246.63 175.037C246.676 174.978 247.12 174.802 247.229 174.734C247.703 174.434 248.163 174.121 248.621 173.8C249.072 173.484 249.521 173.168 249.965 172.843C250.36 172.554 250.752 172.262 251.142 171.966C251.218 171.908 252.082 171.293 251.77 171.275C251.66 171.268 251.372 171.565 251.263 171.644C251.038 171.806 250.812 171.966 250.586 172.126C250.138 172.441 249.689 172.753 249.234 173.058C248.397 173.619 247.557 174.181 246.682 174.683C246.895 173.456 246.979 172.136 247.05 170.893C247.074 170.463 247.058 170.028 247.094 169.599C247.126 169.227 247.4 169.069 247.666 168.798C248.843 167.605 250.034 166.364 251.032 165.015C250.983 165.08 251.337 164.67 251.134 164.682C251.003 164.689 250.741 165.097 250.655 165.195C250.275 165.628 249.892 166.059 249.504 166.484C248.739 167.322 247.95 168.139 247.117 168.909C247.268 164.768 246.841 160.564 245.978 156.517C245.853 155.933 245.725 155.977 245.837 156.552C245.94 157.081 246.035 157.61 246.123 158.141C246.297 159.203 246.44 160.27 246.553 161.34C246.778 163.479 246.879 165.631 246.861 167.783C246.058 166.969 245.218 166.192 244.37 165.426C243.958 165.052 243.545 164.681 243.114 164.329C242.882 164.14 242.464 163.943 242.881 164.337C243.773 165.181 244.679 166.005 245.549 166.873C245.929 167.252 246.404 167.639 246.708 168.084C246.868 168.319 246.838 168.388 246.826 168.683C246.793 169.514 246.787 170.35 246.719 171.18C246.654 171.966 246.57 172.751 246.496 173.536C245.29 172.369 244.054 171.225 242.745 170.174C242.629 170.081 242.106 169.559 242.008 169.684C241.91 169.809 242.572 170.255 242.678 170.345C243.321 170.895 243.937 171.478 244.547 172.064C244.857 172.363 245.165 172.664 245.47 172.967C245.718 173.215 246.244 173.581 246.39 173.9C246.593 174.345 246.242 175.45 246.158 175.993C245.903 177.641 245.577 179.278 245.182 180.898C244.657 179.886 244.073 178.905 243.489 177.925C243.204 177.446 242.91 176.974 242.601 176.51C242.447 176.278 242.29 176.047 242.131 175.818C242.044 175.692 241.793 175.181 241.654 175.137C241.372 175.047 241.981 175.888 242.038 175.974C242.357 176.46 242.664 176.95 242.956 177.452C243.484 178.359 244.002 179.273 244.488 180.202C244.65 180.51 245.035 181.021 245.055 181.366C245.064 181.517 244.956 181.738 244.917 181.882C244.798 182.328 244.678 182.774 244.558 183.22C244.136 184.792 243.62 186.391 242.984 187.886C242.431 186.288 241.725 184.742 241.008 183.213C240.656 182.463 240.26 181.734 239.86 181.008C239.812 180.92 239.58 180.356 239.511 180.653C239.462 180.866 239.978 181.563 240.083 181.768C240.888 183.335 241.614 184.976 242.215 186.632C242.36 187.029 242.498 187.428 242.635 187.827C242.705 188.032 242.8 188.221 242.77 188.427C242.738 188.64 242.589 188.885 242.51 189.087C242.199 189.874 241.842 190.635 241.489 191.403C241.024 192.414 240.526 193.397 240.003 194.378C239.514 193.14 239.002 191.917 238.42 190.719C238.269 190.407 238.116 190.096 237.96 189.787C237.88 189.627 237.737 189.126 237.586 189.055C237.364 188.95 237.543 189.307 237.559 189.346C237.697 189.675 237.865 189.994 238.014 190.318C238.568 191.523 239.061 192.747 239.515 193.993C239.574 194.154 239.632 194.316 239.69 194.477C239.779 194.728 239.769 194.711 239.691 194.956C239.61 195.211 239.408 195.462 239.274 195.695C238.922 196.309 238.559 196.917 238.185 197.518C237.475 198.66 236.724 199.777 235.935 200.866C235.731 201.146 233.646 203.788 233.707 203.839C233.965 204.053 238.011 198.256 238.374 197.697C238.566 197.401 238.755 197.102 238.942 196.803C239.036 196.653 239.129 196.502 239.221 196.352C239.382 196.088 239.426 195.973 239.695 195.852C240.288 195.585 241.078 195.519 241.71 195.353C242.466 195.155 243.219 194.948 243.968 194.725C244.26 194.638 246.046 194.23 246.068 193.937Z" fill="#A4D6C0"/>
<path d="M74.6508 217.31H315.108L270.529 211.485L263.774 202.261C263.774 202.261 272.893 193.522 268.841 186.725C264.788 179.928 243.174 195.464 243.174 195.464C243.174 195.464 246.888 175.559 238.445 175.074C230.003 174.588 225.274 190.609 225.274 190.609C225.274 190.609 215.143 169.733 210.753 174.588C206.362 179.443 213.792 202.261 213.792 202.261C213.792 202.261 205.011 184.783 196.231 192.065C196.231 192.065 201.135 174.644 195.555 170.219C185.761 162.451 169.213 184.783 169.213 184.783C169.213 184.783 175.292 169.248 160.432 161.48C145.573 153.712 137.129 172.646 137.129 172.646C137.129 172.646 131.388 166.335 125.647 172.161C119.906 177.987 122.945 186.24 122.945 186.24C122.945 186.24 111.8 168.277 102.344 181.87C92.8876 195.464 103.695 204.688 103.695 204.688C103.695 204.688 83.7692 199.348 74.6508 217.31Z" fill="#94D5DB"/>
<path d="M80.375 217.31C85.2832 211.51 91.8765 210.151 96.9771 210.151C100.419 210.151 102.879 210.784 102.903 210.79C103.164 210.859 103.428 210.892 103.688 210.892C104.821 210.892 105.894 210.267 106.437 209.224C107.104 207.941 106.803 206.367 105.704 205.429C104.839 204.67 97.3411 197.592 104.885 186.747C106.619 184.255 108.424 182.991 110.248 182.991C114.419 182.991 119.029 188.908 120.315 190.981C120.897 191.92 121.907 192.446 122.947 192.446C123.405 192.446 123.869 192.344 124.306 192.13C125.733 191.43 126.401 189.762 125.851 188.269C125.762 188.02 123.602 181.755 127.851 177.443C128.876 176.403 129.876 175.897 130.905 175.897C132.706 175.897 134.467 177.429 134.84 177.839C135.432 178.489 136.266 178.852 137.129 178.852C137.293 178.852 137.458 178.838 137.621 178.812C138.653 178.646 139.531 177.97 139.957 177.014C140.005 176.908 145.103 165.815 153.412 165.815C155.191 165.815 157.072 166.326 159 167.334C171.151 173.686 166.528 186.234 166.325 186.765C165.772 188.213 166.368 189.854 167.725 190.6C168.197 190.86 168.711 190.984 169.218 190.984C170.168 190.984 171.098 190.547 171.699 189.735C175.991 183.956 184.982 174.783 190.834 174.783C191.908 174.783 192.798 175.092 193.633 175.754C196.217 177.804 195.07 187.857 193.249 194.326C192.881 195.633 193.405 197.027 194.54 197.769C195.056 198.105 195.644 198.271 196.23 198.271C196.934 198.271 197.635 198.031 198.205 197.558C199.067 196.843 199.893 196.496 200.727 196.496C204.613 196.496 209.343 203.41 211.026 206.758C211.567 207.835 212.655 208.467 213.793 208.467C214.187 208.467 214.586 208.391 214.971 208.232C216.469 207.614 217.238 205.944 216.736 204.401C216.718 204.346 214.907 198.752 213.651 192.681C212.023 184.812 212.421 181.59 212.775 180.398C214.965 182.014 219.286 188.476 222.49 195.069C223.011 196.143 224.097 196.815 225.273 196.815C225.359 196.815 225.445 196.811 225.53 196.804C226.804 196.698 227.882 195.82 228.245 194.592C229.536 190.247 233.638 181.268 238.07 181.268C238.135 181.268 238.202 181.27 238.268 181.274C238.754 181.302 239.055 181.466 239.379 181.88C241.464 184.545 241.073 192.91 240.129 197.998C239.898 199.243 240.446 200.505 241.513 201.184C242.021 201.508 242.598 201.669 243.175 201.669C243.808 201.669 244.44 201.474 244.979 201.088C250.297 197.269 260.486 191.211 265.188 191.211C265.7 191.211 266.108 191.296 266.182 191.419C268.849 195.891 261.708 203.051 261.634 203.121C260.51 204.198 260.358 205.942 261.278 207.198L268.032 216.423C268.303 216.793 268.65 217.095 269.044 217.31H80.375Z" fill="#C8E9F0"/>
<path d="M138.016 119.37C145.212 116.006 151.788 111.399 159.061 108.207C166.334 105.014 174.756 103.317 182.195 106.1C189.725 108.916 194.892 115.709 200.835 121.13C208.737 128.337 218.679 133.443 229.268 134.886C239.857 136.329 251.057 133.956 259.731 127.703C267.457 122.135 272.858 113.892 280.18 107.801C286.265 102.738 293.536 99.2804 299.714 94.3324C305.892 89.3844 311.149 82.2016 310.709 74.2896C310.211 65.3312 302.572 58.2926 294.414 54.5909C286.256 50.8891 277.214 49.4983 269.003 45.9146C256.2 40.326 246.127 29.7361 233.487 23.7876C218.655 16.8077 200.679 16.9247 185.939 24.097C164.887 34.3397 151.321 57.3924 129.019 64.497C112.794 69.6654 93.3512 65.8357 79.9152 76.3117C69.6704 84.2995 66.3251 101.603 72.8338 113.027C78.965 123.788 99.1387 125.668 109.96 125.587C119.609 125.515 129.261 123.462 138.016 119.37Z" fill="#02B9B4"/>
<path d="M310.709 74.2896C310.211 65.3312 302.572 58.2926 294.414 54.5909C286.256 50.8891 277.214 49.4986 269.003 45.915C256.2 40.3264 246.127 29.7365 233.487 23.788C231.185 22.705 228.808 21.7934 226.379 21.0518C225.49 24.5596 225.478 28.3647 226.607 32.3281C230.963 47.2359 248.791 50.0833 261.415 58.9853C266.462 62.6486 269.946 68.3325 270.349 74.9905C271.148 88.8176 261.29 98.3793 250.445 105.878C242.177 111.884 232.509 109.681 224.39 106.479C213.734 102.214 213.438 88.9066 206.958 79.0806C199.481 67.7035 185.696 67.48 174.859 74.4676C152.666 88.9459 125.622 119.206 101.478 96.3032C93.4607 88.8355 92.6924 78.5986 96.432 69.4578C90.4315 70.6061 84.7788 72.5194 79.9152 76.3117C69.6704 84.2995 66.3251 101.603 72.8338 113.027C78.965 123.788 99.139 125.668 109.96 125.587C119.609 125.515 129.261 123.462 138.016 119.37C145.212 116.007 151.788 111.399 159.061 108.207C166.334 105.014 174.756 103.317 182.195 106.1C189.725 108.916 194.892 115.709 200.835 121.13C208.737 128.337 218.679 133.443 229.268 134.886C239.857 136.329 251.057 133.956 259.731 127.703C267.457 122.135 272.858 113.892 280.18 107.801C286.265 102.738 293.536 99.2804 299.714 94.3324C305.892 89.3844 311.149 82.2016 310.709 74.2896Z" fill="#4B762E"/>
<path d="M234.622 132.732C232.948 132.704 231.263 132.577 229.612 132.352C219.999 131.042 210.389 126.385 202.553 119.239C201.094 117.908 199.636 116.445 198.226 115.029C193.804 110.591 189.233 106.003 183.088 103.704C180.449 102.717 177.576 102.191 174.546 102.142C169.407 102.059 163.852 103.311 158.036 105.864C154.047 107.615 150.256 109.781 146.591 111.876C143.455 113.668 140.213 115.522 136.936 117.053C128.72 120.892 119.385 122.959 109.941 123.03C109.279 123.035 108.583 123.032 107.856 123.02C101.608 122.919 80.7766 121.808 75.0512 111.759C69.1847 101.463 72.2503 85.5291 81.4831 78.3304C89.1659 72.3402 99.1092 71.3684 109.636 70.3399C116.35 69.6837 123.292 69.005 129.792 66.9347C142.567 62.8652 152.577 53.7952 162.256 45.0241C169.942 38.059 177.89 30.8568 187.054 26.3982C194.322 22.862 202.578 21.0642 210.928 21.1995C218.416 21.3208 225.842 23.0164 232.401 26.1032C238.286 28.8724 243.779 32.8168 249.091 36.6309C254.999 40.8726 261.107 45.2585 267.983 48.2602C272.128 50.0697 276.47 51.3377 280.669 52.5641C285.127 53.8663 289.337 55.0958 293.36 56.9213C300.217 60.0326 307.705 66.2669 308.16 74.4323C308.634 82.9538 301.297 89.7906 298.12 92.3348C295.261 94.6247 292.188 96.564 288.935 98.6177C285.445 100.821 281.836 103.098 278.549 105.833C275.127 108.68 272.119 111.966 269.21 115.145C265.648 119.037 262.283 122.714 258.24 125.627C251.689 130.349 243.301 132.872 234.622 132.732Z" stroke="white" stroke-width="1.316" stroke-miterlimit="10"/>
<path d="M93.7323 91.9871C92.381 89.7091 89.4347 88.9604 87.1573 90.3165C84.8799 91.6725 84.1278 94.6232 85.4792 96.9012C86.8305 99.1792 89.7768 99.9279 92.0542 98.5719C94.3316 97.2158 95.0836 94.2651 93.7323 91.9871ZM90.8384 96.5225C89.6915 97.2055 88.2082 96.8285 87.5276 95.6813C86.8471 94.5344 87.226 93.0484 88.373 92.3655C89.5199 91.6825 91.0033 92.0598 91.6839 93.207C92.3645 94.3543 91.9854 95.8395 90.8384 96.5225Z" fill="white"/>
<path d="M85.6812 87.8277C89.3318 85.6542 94.0546 86.8543 96.2206 90.5059C98.3867 94.1578 97.1811 98.8872 93.5306 101.061C89.8796 103.234 85.1572 102.034 82.9911 98.3825C80.8252 94.731 82.0303 90.0013 85.6812 87.8277ZM82.3038 100.455C82.7436 100.991 83.2409 101.477 83.7872 101.903L82.7379 105.017C83.1976 105.316 83.6764 105.584 84.171 105.82L86.2791 103.301C86.928 103.544 87.6016 103.715 88.2882 103.811L88.9339 107.031C89.4814 107.059 90.0303 107.052 90.5773 107.009L91.1459 103.773C91.83 103.659 92.4994 103.47 93.1422 103.209L95.3097 105.672C95.7985 105.423 96.2707 105.141 96.723 104.83L95.6001 101.746C96.1358 101.305 96.6217 100.806 97.0488 100.259L100.157 101.305C100.456 100.844 100.725 100.365 100.962 99.8691L98.4484 97.7622C98.6922 97.1123 98.8644 96.4375 98.9609 95.7501L102.178 95.0993C102.207 94.551 102.2 94.0015 102.158 93.4541L98.927 92.8894C98.8141 92.2046 98.6258 91.5348 98.3664 90.8916L100.829 88.7183C100.581 88.2293 100.301 87.7572 99.9906 87.3046L96.908 88.4331C96.4682 87.8974 95.9709 87.4117 95.4246 86.9849L96.4738 83.8716C96.0142 83.5726 95.5354 83.3042 95.0408 83.0679L92.9328 85.5876C92.2838 85.3441 91.61 85.1726 90.9235 85.0769L90.2779 81.8576C89.7303 81.8292 89.1814 81.8364 88.6345 81.8796L88.0659 85.115C87.3817 85.2289 86.7124 85.4184 86.0695 85.6789L83.9021 83.2165C83.4132 83.4657 82.9409 83.7469 82.4887 84.058L83.6117 87.1425C83.0759 87.5835 82.5898 88.0825 82.163 88.6295L79.0546 87.5835C78.7553 88.0441 78.4865 88.5238 78.2498 89.0192L80.7634 91.1262C80.5195 91.7761 80.3473 92.4509 80.2508 93.1382L77.0341 93.7891C77.0049 94.3373 77.0115 94.8872 77.0538 95.4343L80.2848 95.999C80.3977 96.6837 80.586 97.3535 80.8453 97.9968L78.3825 100.17C78.6308 100.659 78.9114 101.131 79.2211 101.584L82.3038 100.455Z" fill="white"/>
<path d="M106.256 76.1556C108.997 76.1251 111.25 78.3275 111.284 81.0715C111.319 83.8155 109.122 86.0683 106.381 86.0989C103.64 86.1294 101.387 83.9266 101.352 81.1826C101.318 78.4387 103.515 76.1862 106.256 76.1556ZM99.8658 82.19C99.9443 82.664 100.075 83.1281 100.255 83.5738L98.5506 85.0749C98.7229 85.4138 98.917 85.7411 99.1318 86.0549L101.266 85.2784C101.57 85.6501 101.915 85.9869 102.293 86.2832L101.568 88.4371C101.887 88.6448 102.218 88.8313 102.561 88.9957L104.019 87.2544C104.469 87.4238 104.935 87.5434 105.41 87.6107L105.859 89.8404C106.238 89.8609 106.618 89.8567 106.997 89.8278L107.389 87.5886C107.862 87.5106 108.868 88.4721 109.313 88.2924L110.273 88.9093C110.611 88.7373 110.938 88.5435 111.251 88.3289L110.472 86.1916C110.843 85.8871 111.179 85.5426 111.474 85.1642L113.627 85.8928C113.834 85.5743 114.02 85.2429 114.183 84.9002L112.442 83.4374C112.611 82.9877 112.729 82.5213 112.796 82.0454L115.022 81.5994C115.042 81.2197 115.038 80.8394 115.008 80.4604L112.771 80.0645C112.692 79.5905 112.562 79.1264 112.382 78.6807L114.086 77.1793C113.914 76.8404 113.72 76.5134 113.505 76.1997L111.371 76.9761C111.066 76.6044 110.722 76.2676 110.343 75.9713L111.068 73.8174C110.75 73.6097 110.418 73.4232 110.076 73.2588L108.617 75.0001C108.168 74.8307 107.702 74.7111 107.226 74.6438L106.778 72.4141C106.398 72.3936 106.018 72.3978 105.64 72.4267L105.248 74.6659C104.774 74.7439 104.311 74.8736 103.866 75.0532L102.364 73.3452C102.026 73.5172 101.699 73.711 101.386 73.9257L102.165 76.0629C101.794 76.3675 101.458 76.712 101.162 77.0903L99.0099 76.3617C98.8029 76.6802 98.617 77.0116 98.4534 77.3543L100.195 78.8168C100.026 79.2664 99.9073 79.7336 99.8408 80.2091L97.6142 80.6551C97.5944 81.0348 97.599 81.4151 97.6285 81.7941L99.8658 82.19Z" fill="white"/>
<path d="M104.011 81.1532C103.995 79.8796 105.017 78.8318 106.29 78.8176C107.562 78.8034 108.61 79.8282 108.626 81.1017C108.642 82.3753 107.62 83.423 106.348 83.4372C105.075 83.4515 104.027 82.4267 104.011 81.1532Z" fill="white"/>
<path d="M273.959 87.2355C274.255 89.7763 276.556 91.5962 279.094 91.2967C281.632 90.9971 283.454 88.6913 283.158 86.1505C282.862 83.6096 280.562 81.7897 278.023 82.0893C275.485 82.3888 273.664 84.6946 273.959 87.2355ZM278.289 84.3748C279.567 84.224 280.726 85.1404 280.875 86.4196C281.023 87.6988 280.106 88.8602 278.828 89.011C277.55 89.1619 276.392 88.2452 276.243 86.966C276.094 85.6867 277.011 84.5256 278.289 84.3748Z" fill="white"/>
<path d="M279.417 94.072C275.348 94.5519 271.66 91.635 271.187 87.5623C270.713 83.4896 273.632 79.7938 277.701 79.3139C281.77 78.8339 285.457 81.7506 285.931 85.8233C286.405 89.896 283.486 93.5921 279.417 94.072ZM279.217 99.7162C279.784 99.6868 280.348 99.6201 280.906 99.5169L281.145 96.1267C281.836 95.9357 282.505 95.6693 283.139 95.3319L285.634 97.6325C286.11 97.3233 286.566 96.9835 286.998 96.6147L285.512 93.5617C286.016 93.0503 286.462 92.4847 286.843 91.8758L290.155 92.6181C290.413 92.1119 290.638 91.5895 290.829 91.0541L288.016 89.1565C288.197 88.4615 288.302 87.7487 288.328 87.031L291.569 86.0155C291.54 85.4483 291.474 84.8836 291.372 84.3248L287.986 84.091C287.796 83.3989 287.531 82.7298 287.195 82.0958L289.496 79.5945C289.188 79.1181 288.849 78.6624 288.481 78.2301L285.43 79.7228C284.92 79.2187 284.356 78.7725 283.748 78.3922L284.494 75.0758C283.988 74.818 283.467 74.5931 282.932 74.4031L281.033 77.2222C280.339 77.0415 279.627 76.9373 278.91 76.9127L277.9 73.6698C277.333 73.6992 276.769 73.766 276.211 73.869L275.973 77.2593C275.281 77.4503 274.613 77.7167 273.979 78.054L271.484 75.7535C271.007 76.0627 270.552 76.4025 270.119 76.7713L271.606 79.8242C271.102 80.3356 270.655 80.9013 270.274 81.5102L266.963 80.7679C266.705 81.274 266.479 81.7965 266.289 82.3319L269.102 84.2295C268.92 84.9245 268.815 85.6372 268.79 86.3549L265.549 87.3705C265.578 87.938 265.644 88.5027 265.746 89.0612L269.132 89.295C269.322 89.9871 269.587 90.6562 269.923 91.2901L267.621 93.7911C267.929 94.2675 268.268 94.7236 268.636 95.1559L271.688 93.6632C272.198 94.1672 272.762 94.6133 273.37 94.9938L272.624 98.31C273.13 98.5679 273.651 98.7928 274.185 98.9829L276.085 96.1638C276.779 96.3444 277.491 96.4486 278.207 96.4733L279.217 99.7162Z" fill="white"/>
<path d="M287.901 73.8844C285.633 72.5179 284.897 69.5674 286.259 67.299C287.62 65.0306 290.567 64.2982 292.835 65.6647C295.103 67.0309 295.838 69.9818 294.477 72.2501C293.115 74.5185 290.169 75.251 287.901 73.8844ZM285.577 76.6884C285.878 76.8978 286.192 77.0872 286.518 77.2558L287.974 75.6182C288.403 75.7947 288.85 75.9234 289.306 76.002L289.675 78.1655C290.04 78.1963 290.407 78.203 290.773 78.1861L291.215 76.0374C291.674 75.9758 292.125 75.8641 292.559 75.7036L293.959 77.3941C294.29 77.2379 294.611 77.0601 294.919 76.8622L294.229 74.7785C294.595 74.4953 294.93 74.1725 295.225 73.8162L297.281 74.581C297.489 74.2796 297.678 73.9653 297.846 73.6393L296.208 72.179C296.384 71.7502 296.512 71.3032 296.59 70.8461L298.75 70.4799C298.78 70.1143 298.787 69.7476 298.769 69.3811L296.622 68.9348C296.56 68.4752 296.448 68.0238 296.287 67.5889L297.974 66.1902C297.817 65.8581 297.639 65.5369 297.441 65.2282L295.361 65.9161C295.077 65.5489 294.754 65.214 294.398 64.9175L295.159 62.8604C294.858 62.651 294.544 62.4616 294.218 62.2934L292.761 63.9309C292.333 63.7545 291.886 63.6258 291.429 63.5472L291.06 61.3837C290.695 61.3529 290.329 61.3458 289.963 61.3631L289.52 63.5118C289.061 63.5734 288.61 63.685 288.176 63.8456L286.776 62.1551C286.445 62.3114 286.124 62.4891 285.816 62.6869L285.862 63.7872C285.495 64.0704 285.806 65.3766 285.51 65.733L283.455 64.9682C283.246 65.2695 283.057 65.5842 282.889 65.9098L284.527 67.3702C284.352 67.799 284.224 68.246 284.146 68.7031L281.985 69.0693C281.955 69.4349 281.949 69.8017 281.966 70.1681L284.113 70.6144C284.175 71.074 284.287 71.5253 284.448 71.9603L282.762 73.359C282.918 73.6907 283.096 74.0123 283.294 74.321L285.375 73.633C285.658 74.0002 285.981 74.3352 286.338 74.6317L285.577 76.6884Z" fill="white"/>
<path d="M289.222 71.6842C290.274 72.3184 291.645 71.9777 292.277 70.9249C292.909 69.872 292.567 68.4996 291.514 67.8654C290.461 67.2311 289.091 67.5719 288.459 68.6247C287.827 69.6775 288.169 71.0499 289.222 71.6842Z" fill="white"/>
<path d="M212.031 38.7953C212.132 38.8262 212.23 38.8627 212.33 38.8953L214.256 32.5542C214.155 32.5219 214.057 32.4855 213.956 32.4546C207.496 30.4815 200.854 31.3015 195.321 34.2204L198.44 40.0722C202.478 37.9506 207.321 37.3566 212.031 38.7953Z" fill="#26A7BC"/>
<path d="M183.268 48.8322C183.253 48.8827 183.241 48.9336 183.226 48.9842L189.564 50.9199C189.579 50.8692 189.591 50.8184 189.606 50.7678C191.061 45.9753 194.335 42.2398 198.44 40.0828L195.32 34.229C189.72 37.1835 185.255 42.288 183.268 48.8322Z" fill="#1D9AB7"/>
<path d="M222.805 47.8423L228.646 44.7268C225.751 39.1126 220.717 34.612 214.249 32.5467L212.324 38.8875C217.042 40.4183 220.708 43.7258 222.805 47.8423Z" fill="#2FB3C1"/>
<path d="M201.858 73.3186L199.933 79.6594C206.375 81.5382 212.975 80.6614 218.461 77.704L215.342 71.8522C211.352 74.0123 206.55 74.6633 201.858 73.3186Z" fill="#6AE5E1"/>
<path d="M201.56 73.2422C196.926 71.8268 193.282 68.7058 191.095 64.7789L185.254 67.8943C188.239 73.3187 193.252 77.6333 199.635 79.5828C199.737 79.6138 199.838 79.6379 199.94 79.6672L201.865 73.3266C201.764 73.2977 201.662 73.2731 201.56 73.2422Z" fill="#015E95"/>
<path d="M189.556 50.9264L183.218 48.9907C181.268 55.5638 182.192 62.3161 185.262 67.895L191.105 64.7785C188.833 60.6981 188.138 55.748 189.556 50.9264Z" fill="#1285B2"/>
<path d="M215.342 71.8423L218.462 77.6961C223.926 74.7497 228.282 69.7422 230.267 63.3476L223.93 61.4119C222.476 66.0551 219.312 69.6936 215.342 71.8423Z" fill="#45CECE"/>
<path d="M223.987 61.2562C223.971 61.3067 223.953 61.3554 223.937 61.4059L230.275 63.3416C230.291 63.2912 230.309 63.2424 230.324 63.1919C232.264 56.8016 231.477 50.2314 228.638 44.7264L222.795 47.8428C224.836 51.849 225.395 56.6175 223.987 61.2562Z" fill="#38BFC6"/>
<path d="M309.209 126.452H77.9042C70.065 126.452 63.71 120.085 63.71 112.231C63.71 104.377 70.065 98.0105 77.9042 98.0105H309.209C317.048 98.0105 323.403 104.377 323.403 112.231C323.403 120.085 317.048 126.452 309.209 126.452Z" fill="#E2E2E2"/>
<path d="M309.209 126.452H77.9042C70.065 126.452 63.71 120.085 63.71 112.231C63.71 104.377 70.065 98.0105 77.9042 98.0105H309.209C317.048 98.0105 323.403 104.377 323.403 112.231C323.403 120.085 317.048 126.452 309.209 126.452Z" stroke="#A1ABAD" stroke-width="3.718" stroke-miterlimit="10"/>
<path d="M307.735 124.206H79.3778C72.7764 124.206 67.4251 118.845 67.4251 112.231C67.4251 105.617 72.7764 100.256 79.3778 100.256H307.735C314.337 100.256 319.688 105.617 319.688 112.231C319.688 118.845 314.337 124.206 307.735 124.206Z" fill="white"/>
<path d="M298.852 123.548L302.114 117.063C302.165 116.961 302.016 116.798 301.782 116.632L302.54 115.124C303.842 115.58 305.296 115.632 306.705 115.164C310.097 114.04 311.946 110.363 310.827 106.968C309.708 103.573 306.038 101.726 302.646 102.851C299.254 103.976 297.404 107.653 298.523 111.048C299.045 112.63 300.125 113.87 301.469 114.635L300.731 116.102C300.458 116.014 300.238 115.992 300.187 116.094L296.926 122.578C296.697 123.033 298.624 124.003 298.852 123.548ZM299.774 110.633C298.883 107.928 300.356 104.999 303.058 104.103C305.761 103.207 308.684 104.678 309.576 107.383C310.468 110.087 308.995 113.016 306.292 113.912C303.59 114.809 300.666 113.338 299.774 110.633Z" fill="#A1ABAD"/>
<path d="M110.161 105.022C110.161 105.547 109.547 106.732 109.115 106.732C108.796 106.732 108.045 106.049 106.406 106.049C104.654 106.049 103.994 106.869 103.994 107.804C103.994 109.218 105.246 109.651 106.679 110.221C108.591 110.996 110.867 111.908 110.867 115.009C110.867 118.384 108.454 119.797 105.769 119.797C102.605 119.797 100.648 118.634 100.648 117.928C100.648 117.335 101.445 116.172 101.832 116.172C102.196 116.172 103.379 117.267 105.382 117.267C106.634 117.267 107.84 116.697 107.84 115.283C107.84 113.756 106.087 113.276 104.358 112.524C102.651 111.772 100.967 110.814 100.967 107.987C100.967 105 103.425 103.518 106.224 103.518C108.227 103.518 110.161 104.247 110.161 105.022Z" fill="#3E2344"/>
<path d="M124.044 121.804V121.964C124.044 122.58 123.862 122.853 123.43 122.853H111.55C111.117 122.853 110.935 122.58 110.935 121.964V121.804C110.935 121.166 111.117 120.915 111.55 120.915H123.43C123.862 120.915 124.044 121.166 124.044 121.804Z" fill="#3E2344"/>
<path d="M267.639 99.3831H256.185V96.2644C256.185 93.7156 258.247 91.6492 260.791 91.6492H263.033C265.577 91.6492 267.639 93.7156 267.639 96.2644V99.3831Z" fill="#E2E2E2"/>
<path d="M263.029 94.0191H260.539V11.3152H263.029V94.0191Z" fill="#E2E2E2"/>
<path d="M134.664 99.3831H123.209V96.2644C123.209 93.7156 125.272 91.6492 127.816 91.6492H130.057C132.601 91.6492 134.664 93.7156 134.664 96.2644V99.3831Z" fill="#E2E2E2"/>
<path d="M130.054 94.0191H127.564V11.3152H130.054V94.0191Z" fill="#E2E2E2"/>
<path d="M230.11 76.147L258.263 50.584L230.11 76.147Z" fill="#3E2344"/>
<path d="M230.289 76.3455L229.93 75.9482L258.083 50.3853L258.443 50.7825L230.289 76.3455Z" fill="#1285B2"/>
<path d="M247.509 90.8004L265.253 56.2976L247.509 90.8004Z" fill="#3E2344"/>
<path d="M247.748 90.9232L247.272 90.6775L265.014 56.1748L265.491 56.4205L247.748 90.9232Z" fill="#1285B2"/>
<path d="M239.913 89.7041C236.514 90.3559 233.221 88.1212 232.565 84.7172C231.909 81.3132 234.137 78.0203 237.536 77.3685C240.935 76.7166 244.228 78.9513 244.884 82.3553C245.54 85.7593 243.312 89.0522 239.913 89.7041ZM239.734 92.0639C240.147 92.0156 240.555 91.9369 240.956 91.8294C241.046 91.3832 241.023 90.9432 240.888 90.5086C241.286 90.3854 241.672 90.2281 242.043 90.039C242.25 90.4447 242.541 90.7756 242.916 91.0326C243.279 90.8298 243.626 90.6007 243.956 90.3476C243.868 89.9009 243.678 89.5028 243.388 89.1526C243.708 88.8867 244.004 88.5931 244.274 88.2764C244.62 88.572 245.015 88.7668 245.46 88.8604C245.717 88.5342 245.951 88.1892 246.158 87.8288C245.906 87.4496 245.579 87.1539 245.177 86.9416C245.371 86.5728 245.532 86.1884 245.661 85.7921C246.093 85.9327 246.532 85.9612 246.979 85.8771C247.092 85.4768 247.175 85.0693 247.229 84.6567C246.852 84.4028 246.437 84.2544 245.984 84.2123C246.022 83.7971 246.024 83.3799 245.991 82.9643C246.444 82.9288 246.861 82.7865 247.241 82.538C247.192 82.1251 247.113 81.7155 247.005 81.3138C246.56 81.2236 246.12 81.2457 245.686 81.3801C245.562 80.982 245.405 80.5949 245.215 80.2235C245.62 80.0169 245.95 79.7261 246.207 79.3506C246.004 78.9874 245.774 78.6391 245.521 78.3092C245.075 78.3966 244.677 78.5855 244.328 78.876C244.062 78.5553 243.768 78.2581 243.452 77.9872C243.746 77.6413 243.94 77.2459 244.033 76.8007C243.707 76.5429 243.362 76.3086 243.002 76.1007C242.623 76.3522 242.328 76.6791 242.117 77.0815C241.749 76.887 241.364 76.7249 240.968 76.5959C241.108 76.1633 241.135 75.7232 241.051 75.2759C240.651 75.1623 240.244 75.0782 239.832 75.0238C239.578 75.4014 239.431 75.8167 239.389 76.2697C238.975 76.2311 238.558 76.228 238.143 76.2606C238.107 75.807 237.964 75.3898 237.715 75.0087C237.302 75.0569 236.894 75.1355 236.493 75.2432C236.403 75.6893 236.426 76.1293 236.561 76.5639C236.163 76.6872 235.777 76.8444 235.406 77.0335C235.199 76.6278 234.908 76.297 234.533 76.04C234.17 76.2428 233.823 76.4718 233.493 76.725C233.581 77.1717 233.771 77.5697 234.061 77.9199C233.741 78.1859 233.445 78.4794 233.175 78.7962C232.829 78.5005 232.433 78.306 231.988 78.2124C231.731 78.5386 231.498 78.8833 231.291 79.2437C231.543 79.6229 231.87 79.9186 232.272 80.1309C232.078 80.4993 231.917 80.8842 231.789 81.2804C231.356 81.1399 230.917 81.1114 230.47 81.1954C230.357 81.5958 230.274 82.0032 230.22 82.4158C230.597 82.6698 231.012 82.8181 231.465 82.8602C231.427 83.275 231.424 83.6926 231.458 84.1081C231.005 84.1437 230.588 84.286 230.208 84.5345C230.256 84.9478 230.336 85.3571 230.444 85.7587C230.889 85.849 231.329 85.8268 231.763 85.6925C231.887 86.0906 232.044 86.4777 232.234 86.849C231.829 87.0555 231.499 87.3464 231.242 87.7219C231.445 88.0852 231.675 88.4335 231.928 88.7633C232.374 88.6759 232.772 88.487 233.121 88.1965C233.387 88.5172 233.681 88.8145 233.997 89.0853C233.703 89.4312 233.509 89.8271 233.416 90.2723C233.742 90.5302 234.087 90.7639 234.447 90.9719C234.826 90.7203 235.121 90.3935 235.332 89.991C235.701 90.1857 236.085 90.3477 236.481 90.4767C236.341 90.9092 236.313 91.3493 236.398 91.7966C236.798 91.9101 237.205 91.9943 237.617 92.0487C237.871 91.6711 238.018 91.2559 238.06 90.8028C238.474 90.8414 238.891 90.8445 239.306 90.8119C239.342 91.2656 239.485 91.6827 239.734 92.0639Z" fill="#015E95"/>
<path d="M236.547 71.8939C242.874 70.6809 249.015 74.8488 250.236 81.1848C251.457 87.5204 247.303 93.6617 240.976 94.8746C234.648 96.0875 228.507 91.9196 227.286 85.5836C226.065 79.248 230.22 73.1069 236.547 71.8939ZM240.823 94.0842C246.715 92.9546 250.584 87.2359 249.447 81.3357C248.31 75.4355 242.591 71.5542 236.699 72.6838C230.807 73.8134 226.938 79.5325 228.075 85.4327C229.213 91.3329 234.931 95.2137 240.823 94.0842Z" fill="#015E95"/>
<path d="M239.615 88.1546C242.158 87.6672 243.827 85.1988 243.336 82.6523C242.846 80.1058 240.378 78.4307 237.835 78.9182C235.292 79.4056 233.622 81.8739 234.113 84.4204C234.603 86.9669 237.072 88.6421 239.615 88.1546Z" fill="#94D5DB"/>
<path d="M260.751 51.3619C259.621 51.9457 259.175 53.342 259.757 54.4747C260.34 55.6071 261.734 56.0537 262.865 55.4698C263.995 54.886 264.441 53.4893 263.858 52.357C263.275 51.2242 261.881 50.778 260.751 51.3619Z" fill="#94D5DB"/>
<path d="M264.006 57.6874C261.655 58.9017 258.756 57.9731 257.544 55.6178C256.332 53.2626 257.259 50.3585 259.61 49.1441C261.961 47.9301 264.859 48.8584 266.071 51.2136C267.284 53.5689 266.357 56.473 264.006 57.6874ZM259.855 49.6211C257.767 50.6998 256.943 53.2793 258.02 55.3718C259.097 57.4642 261.671 58.2891 263.76 57.2104C265.849 56.1317 266.672 53.5522 265.595 51.4597C264.519 49.3672 261.944 48.5424 259.855 49.6211Z" fill="#015E95"/>
<path d="M261.802 53.5689L258.779 46.6221C258.779 46.6221 261.214 44.923 265.492 47.0224L261.802 53.5689Z" fill="#1D9AB7"/>
<path d="M166.627 54.109L131.503 39.5911L166.627 54.109Z" fill="#3E2344"/>
<path d="M166.525 54.3569L166.729 53.8609L131.606 39.343L131.401 39.839L166.525 54.3569Z" fill="#015E95"/>
<path d="M155.198 73.7945L126.854 47.3367L155.198 73.7945Z" fill="#3E2344"/>
<path d="M155.016 73.9908L155.381 73.5982L127.037 47.1404L126.672 47.533L155.016 73.9908Z" fill="#015E95"/>
<path d="M156.562 62.06C157.992 58.9057 161.713 57.5108 164.866 58.9471C168.019 60.3834 169.417 64.1106 167.987 67.2649C166.557 70.4192 162.836 71.814 159.683 70.3778C156.53 68.9415 155.132 65.2142 156.562 62.06ZM160.015 71.598C160.411 71.7278 160.817 71.8232 161.229 71.8836C161.164 72.334 161.211 72.7722 161.369 73.199C161.782 73.2437 162.198 73.2578 162.613 73.2421C162.799 72.8271 162.875 72.3932 162.84 71.9394C163.255 71.9079 163.666 71.8402 164.07 71.7381C164.182 72.1792 164.392 72.5672 164.702 72.9009C165.1 72.7839 165.49 72.6377 165.867 72.4639C165.88 72.0091 165.784 71.5787 165.578 71.1727C165.949 70.9844 166.303 70.7648 166.637 70.5158C166.909 70.8808 167.251 71.1583 167.665 71.3484C167.988 71.0873 168.291 70.8032 168.574 70.498C168.412 70.0726 168.159 69.7117 167.813 69.4153C168.084 69.0988 168.327 68.76 168.54 68.4022C168.93 68.6353 169.353 68.7607 169.807 68.7781C170.005 68.4131 170.178 68.034 170.321 67.6438C170.01 67.3122 169.638 67.0759 169.206 66.9342C169.335 66.5383 169.429 66.1314 169.489 65.7192C169.939 65.7852 170.377 65.739 170.803 65.5813C170.847 65.1675 170.86 64.7513 170.844 64.3357C170.429 64.1489 169.996 64.0725 169.543 64.1071C169.511 63.6916 169.442 63.2797 169.34 62.8755C169.78 62.764 170.168 62.5538 170.5 62.2445C170.383 61.8455 170.236 61.4552 170.062 61.0771C169.608 61.063 169.178 61.1591 168.773 61.3646C168.584 60.9927 168.364 60.638 168.115 60.3036C168.479 60.0319 168.756 59.6892 168.945 59.276C168.684 58.9521 168.4 58.6476 168.095 58.3647C167.67 58.5257 167.31 58.7787 167.014 59.1242C166.698 58.8526 166.359 58.6093 166.001 58.3956C166.234 58.0048 166.358 57.582 166.375 57.1274C166.01 56.9282 165.631 56.7552 165.241 56.6109C164.91 56.9224 164.675 57.2944 164.534 57.7268C164.138 57.597 163.732 57.5017 163.32 57.4413C163.385 56.9909 163.338 56.5527 163.18 56.1259C162.767 56.0812 162.351 56.0671 161.936 56.0828C161.75 56.4979 161.674 56.9316 161.71 57.3854C161.294 57.417 160.883 57.4846 160.479 57.5867C160.367 57.1455 160.157 56.7577 159.848 56.4239C159.449 56.541 159.06 56.6872 158.682 56.861C158.669 57.3158 158.765 57.7465 158.971 58.1522C158.6 58.3405 158.246 58.5601 157.912 58.809C157.64 58.4441 157.298 58.1664 156.885 57.9765C156.561 58.2376 156.258 58.522 155.976 58.8269C156.137 59.2523 156.391 59.6133 156.736 59.9096C156.465 60.2257 156.222 60.5649 156.009 60.9226C155.619 60.6896 155.196 60.5641 154.742 60.5468C154.544 60.9122 154.371 61.2909 154.228 61.6811C154.539 62.0127 154.911 62.2489 155.343 62.3907C155.214 62.7866 155.12 63.1931 155.06 63.6057C154.61 63.5397 154.172 63.5859 153.746 63.7436C153.702 64.1574 153.689 64.5736 153.705 64.9891C154.12 65.1764 154.553 65.2523 155.006 65.2178C155.039 65.6333 155.107 66.0452 155.209 66.4494C154.769 66.5609 154.382 66.7712 154.049 67.0804C154.166 67.4794 154.313 67.8697 154.487 68.2478C154.941 68.2619 155.371 68.1658 155.776 67.9603C155.965 68.3322 156.185 68.6869 156.434 69.0213C156.07 69.293 155.793 69.6356 155.604 70.0489C155.865 70.3728 156.149 70.6773 156.454 70.9602C156.879 70.7992 157.239 70.5458 157.535 70.2007C157.851 70.4719 158.19 70.7156 158.548 70.9292C158.316 71.32 158.191 71.7429 158.174 72.1975C158.539 72.3968 158.918 72.5697 159.308 72.714C159.639 72.4025 159.874 72.0305 160.015 71.598Z" fill="#015E95"/>
<path d="M173.084 69.3186C170.422 75.1892 163.482 77.7907 157.614 75.1173C151.745 72.4441 149.136 65.4931 151.798 59.6221C154.46 53.7514 161.4 51.15 167.268 53.8233C173.137 56.4967 175.746 63.4475 173.084 69.3186ZM172.352 68.9854C174.831 63.5181 172.402 57.0448 166.936 54.5552C161.472 52.0658 155.009 54.488 152.53 59.9552C150.051 65.4225 152.481 71.896 157.945 74.3854C163.411 76.8749 169.873 74.4527 172.352 68.9854Z" fill="#015E95"/>
<path d="M160.335 68.9419C157.976 67.8677 156.928 65.0738 157.997 62.7142C159.067 60.3546 161.856 59.309 164.215 60.3832C166.573 61.4574 167.622 64.2513 166.552 66.6109C165.482 68.9705 162.693 70.0161 160.335 68.9419Z" fill="#94D5DB"/>
<path d="M129.425 41.1662C130.686 41.3326 131.577 42.4956 131.411 43.759C131.244 45.0223 130.084 45.9148 128.823 45.7484C127.562 45.582 126.671 44.419 126.837 43.1557C127.003 41.8923 128.164 40.9998 129.425 41.1662Z" fill="#94D5DB"/>
<path d="M124.368 42.8294C124.713 40.202 127.128 38.3467 129.75 38.6926C132.373 39.0386 134.225 41.4576 133.879 44.0849C133.534 46.7123 131.12 48.5677 128.497 48.2217C125.875 47.8757 124.023 45.4567 124.368 42.8294ZM124.899 42.8997C124.592 45.2336 126.238 47.3824 128.567 47.6899C130.897 47.9974 133.042 46.3485 133.349 44.0146C133.656 41.6807 132.01 39.5319 129.68 39.2244C127.351 38.9169 125.206 40.5659 124.899 42.8997Z" fill="#015E95"/>
<path d="M129.18 43.5991L129.68 36.0374C129.68 36.0374 126.815 35.2634 123.498 38.6888L129.18 43.5991Z" fill="#1D9AB7"/>
<path d="M89.1201 169.168C88.1338 170.156 82.2191 164.23 83.2054 163.242L97.2627 149.159C97.9801 148.44 103.894 154.366 103.177 155.084L89.1201 169.168Z" fill="#1B809B"/>
<path d="M128.132 77.7051C103.923 77.7051 84.2976 97.3665 84.2976 121.62C84.2976 145.874 103.923 165.535 128.132 165.535C152.34 165.535 171.965 145.874 171.965 121.62C171.965 97.3665 152.34 77.7051 128.132 77.7051ZM128.132 160.57C106.66 160.57 89.254 143.132 89.254 121.62C89.254 100.109 106.66 82.6706 128.132 82.6706C149.603 82.6706 167.009 100.109 167.009 121.62C167.009 143.132 149.603 160.57 128.132 160.57Z" fill="#1D9AB7"/>
<g style="mix-blend-mode:multiply" opacity="0.3">
<path d="M128.132 160.57C106.66 160.57 89.254 143.132 89.254 121.62C89.254 100.109 106.66 82.6707 128.132 82.6707C149.603 82.6707 167.009 100.109 167.009 121.62C167.009 143.132 149.603 160.57 128.132 160.57Z" fill="#71BF9D"/>
</g>
<g opacity="0.4">
<path d="M128.132 105.016C108.2 105.016 92.0421 141.589 92.0421 121.62C92.0421 101.651 108.2 85.4636 128.132 85.4636C148.063 85.4636 164.221 101.651 164.221 121.62C164.221 141.589 148.063 105.016 128.132 105.016Z" fill="white"/>
</g>
<g opacity="0.3">
<path d="M115.583 149.705C112.801 152.492 106.524 150.724 101.564 145.755C96.6035 140.785 94.8385 134.497 97.6208 131.71C100.403 128.922 106.68 130.69 111.64 135.66C116.6 140.629 118.365 146.917 115.583 149.705Z" fill="white"/>
</g>
<path d="M56.5157 206.771C53.9599 209.331 43.1161 198.468 45.6719 195.907L82.0927 159.419C83.9516 157.557 94.795 168.421 92.9361 170.283L56.5157 206.771Z" fill="#1D9AB7"/>
<path d="M50.4641 199.814C51.0903 200.093 85.5323 166.004 85.5323 166.004C85.5323 166.004 84.3923 163.529 81.7318 162.767L48.3456 197.097C48.3456 197.097 48.7537 199.052 50.4641 199.814Z" fill="#24A7BC"/>
<path d="M84.0369 180.129C83.7991 180.129 83.5612 180.039 83.3796 179.857C83.1402 179.617 83.0592 179.279 83.1356 178.972C82.4504 177.196 75.1925 169.924 73.4197 169.238C73.1139 169.317 72.7756 169.233 72.5362 168.993C72.1734 168.63 72.1734 168.041 72.5362 167.677C72.7155 167.498 73.1151 167.221 73.7809 167.402C76.0076 168 84.3721 176.379 84.9685 178.61C85.1466 179.277 84.8727 179.677 84.6938 179.857C84.5122 180.039 84.2748 180.129 84.0369 180.129Z" fill="#1B809B"/>
<path d="M64.8608 199.158C64.0487 199.158 63.0791 198.56 62.182 197.913C61.0002 197.061 59.5479 195.79 58.0937 194.333C56.6383 192.876 55.368 191.419 54.5155 190.234C53.5855 188.939 52.7564 187.494 53.6623 186.586C54.0247 186.223 54.6133 186.223 54.9761 186.586C55.2655 186.876 55.3241 187.31 55.1519 187.658C55.5554 189.505 62.9064 196.869 64.7498 197.274C65.0971 197.1 65.5293 197.159 65.8195 197.45C66.1823 197.813 66.1823 198.402 65.8195 198.766C65.5433 199.043 65.2174 199.158 64.8608 199.158Z" fill="#1B809B"/>
<g style="mix-blend-mode:multiply" opacity="0.2">
<path d="M205.502 233.749C205.502 235.968 185.752 237.767 161.39 237.767C137.027 237.767 117.277 235.968 117.277 233.749C117.277 231.531 137.027 229.732 161.39 229.732C185.752 229.732 205.502 231.531 205.502 233.749Z" fill="black"/>
</g>
<path d="M140.923 203.875L133.129 232.686C132.683 234.226 135.29 234.29 135.547 233.628L145.76 204.548L140.923 203.875Z" fill="#F99441"/>
<path d="M137.186 203.152L128.601 234.885C128.11 236.581 130.982 236.652 131.265 235.923L142.514 203.893L137.186 203.152Z" fill="#FFD25A"/>
<path d="M159.006 203.875L166.8 232.686C167.246 234.226 164.638 234.29 164.382 233.628L154.169 204.548L159.006 203.875Z" fill="#F99441"/>
<path d="M162.636 203.152L171.221 234.885C171.712 236.581 168.84 236.652 168.556 235.923L157.308 203.893L162.636 203.152Z" fill="#FFD25A"/>
<path d="M137.852 205.372C137.852 205.372 139.397 207.749 150.427 207.749C161.457 207.749 163.222 205.372 163.222 205.372H137.852Z" fill="#9E1B0D"/>
<path d="M132.844 199.357C132.844 199.357 132.568 203.28 134.114 205.139C136.464 207.967 162.203 206.272 163.581 205.523C166.382 204 165.134 197.758 165.134 197.758L132.844 199.357Z" fill="#DD4026"/>
<path d="M164.796 193.895L136.114 194.471C135.732 194.479 135.374 194.669 135.131 194.997C134.654 195.642 133.863 196.769 133.472 197.649C132.451 199.946 132.535 199.951 134.743 200.002C142.176 200.173 164.475 199.542 164.475 199.542C165.313 199.526 165.863 198.562 165.518 197.713" fill="#CC321D"/>
<g style="mix-blend-mode:multiply">
<path d="M165.377 197.109C165.377 198.184 158.694 199.056 150.45 199.056C142.205 199.056 135.523 198.184 135.523 197.109C135.523 196.034 142.205 195.162 150.45 195.162C158.694 195.162 165.377 196.034 165.377 197.109Z" fill="#CC321D"/>
</g>
<g style="mix-blend-mode:multiply" opacity="0.2">
<g style="mix-blend-mode:multiply">
<path d="M299.11 239.13C299.11 240.454 283.954 241.527 265.258 241.527C246.562 241.527 231.405 240.454 231.405 239.13C231.405 237.807 246.562 236.734 265.258 236.734C283.954 236.734 299.11 237.807 299.11 239.13Z" fill="black"/>
</g>
</g>
<path d="M174.249 220.718L175.352 224.889C175.352 224.889 179.405 227.967 179.969 224.62C179.969 224.62 179.149 221.391 178.754 219.847C178.359 218.303 174.209 218.818 174.249 220.718Z" fill="#C38767"/>
<path d="M149.718 196.963C149.718 196.963 163.514 197.095 166.85 195.74C170.186 194.385 173.441 188.302 170.777 188.182C168.112 188.061 149.718 196.963 149.718 196.963Z" fill="#117A93"/>
<path d="M164.386 196.306C164.386 196.306 164.407 199.296 166.981 205.259C169.554 211.221 173.938 222.773 173.938 222.773C173.938 222.773 176.032 223.266 179.299 221.01C179.299 221.01 174.994 192.665 172.908 190.107C170.329 186.943 164.386 192.896 164.386 196.306Z" fill="#117A93"/>
<path d="M167.173 191.101C167.173 191.101 168.184 199.003 175.769 222.611" stroke="#1799C6" stroke-width="1.596" stroke-miterlimit="10"/>
<path d="M185.378 229.013C181.058 227.755 180.172 225.032 180.172 225.032C179.357 222.931 176.408 222.774 175.352 224.889C175.352 224.889 174.705 227.006 174.686 227.505C180.823 229.136 176.818 232.239 186.504 231.202L186.47 231.61C186.477 231.605 186.487 231.6 186.493 231.595C186.493 231.595 187.104 229.515 185.378 229.013Z" fill="#015E95"/>
<path d="M174.685 227.505C174.666 227.999 175.707 231.157 175.707 231.157C176.131 231.407 176.471 231.524 177.109 231.227L177.612 229.052C177.612 229.052 178.977 230.881 180.087 231.352C181.416 231.916 185.758 232.079 186.47 231.609L186.503 231.202C176.818 232.239 180.823 229.136 174.685 227.505Z" fill="#014466"/>
<path d="M199.585 210.35L199.376 211.122C199.376 211.122 198.445 211.268 197.858 210.91L197.969 210.108C197.989 209.962 198.122 209.86 198.268 209.878L199.358 210.012C199.52 210.033 199.627 210.192 199.585 210.35Z" fill="#FFBE57"/>
<path d="M187.961 208.065L191.89 211.906C191.89 211.906 194.46 211.959 195.48 211.174C196.5 210.39 195.733 209.264 195.733 209.264L192.266 204.872L187.961 208.065Z" fill="#C38767"/>
<path d="M178.221 184.383C175.485 180.883 172.418 181.393 170.48 181.984C163.87 184.002 148.937 184.973 148.937 184.973L133.198 182.953C133.198 182.953 129.711 190.814 136.007 196.346C141.482 201.156 156.631 199.173 171.465 191.939C173.935 198.978 182.859 203.661 188.897 209.868C193.081 208.565 193.551 206.097 193.551 206.097C193.551 206.097 182.352 189.668 178.221 184.383Z" fill="#1285B2"/>
<path d="M147.523 192.062C147.523 192.062 168.959 190.904 171.275 188.919L172.639 188.944L191.294 208.776" stroke="#1799C6" stroke-width="1.596" stroke-miterlimit="10"/>
<path d="M198.993 213.945C200.184 213.873 202.998 211.914 203.922 211.249C203.729 210.746 203.138 209.596 201.851 209.938C197.764 211.025 195.733 209.264 195.733 209.264C194.059 207.968 191.608 209.274 191.783 211.491C191.783 211.491 192.287 213.509 192.513 213.92C192.513 213.92 194.688 213.415 195.06 213.261C195.432 213.107 197.571 214.031 198.993 213.945Z" fill="#015E95"/>
<path d="M196.188 215.781L195.618 213.744C195.618 213.744 197.602 214.553 198.724 214.393C200.081 214.199 203.717 212.181 203.999 211.476C203.999 211.476 203.974 211.384 203.922 211.249C202.998 211.914 200.184 213.873 198.993 213.945C197.572 214.031 195.433 213.107 195.061 213.261C194.688 213.415 192.513 213.92 192.513 213.92C192.735 214.326 195.13 216.35 195.13 216.35C195.593 216.345 195.818 216.33 196.188 215.781Z" fill="#014466"/>
<path d="M167.842 174.49C167.883 174.495 169.596 174.568 170.002 174.776C170.408 174.984 171.138 176.303 171.138 176.303C171.138 176.303 169.634 176.396 169.186 176.182C168.738 175.968 167.842 174.49 167.842 174.49Z" fill="#C38767"/>
<path d="M161.952 175.055C161.952 175.055 165.298 173.88 166.466 173.753C167.586 173.632 167.681 174.385 168.148 174.533C168.664 174.643 168.943 174.921 169.409 175.354C169.837 175.752 170.881 175.68 171.443 176.041C171.792 176.264 172.417 177.511 172.502 177.897C172.587 178.284 172.057 178.285 171.744 178.143C171.431 178.001 171.025 177.098 170.73 176.951C170.435 176.803 169.137 177.182 169.137 177.182C169.137 177.182 167.702 179.774 163.397 178.868C158.666 177.873 161.952 175.055 161.952 175.055Z" fill="#C38767"/>
<path d="M139.573 153.152C139.573 153.152 135.48 153.106 136.082 160.095C136.685 167.084 140.965 178.773 147.471 180.048C153.978 181.324 164.095 178.257 164.095 178.257C166.335 176.932 165.453 173.525 162.824 173.821C158.242 174.337 155.392 174.56 149.45 174.041C147.212 173.846 145.951 162.403 145.37 159.108C144.789 155.813 142.385 153.012 139.573 153.152Z" fill="#01305E"/>
<path d="M151.606 140.892C151.516 140.86 150.339 140.123 149.72 141.257C149.298 142.03 149.522 143.159 150.54 143.441C151.93 143.826 151.606 140.892 151.606 140.892Z" fill="#E57E55"/>
<path d="M147.303 140.779C146.389 142.654 144.398 145.564 143.194 147.36C141.99 149.156 138.597 151.699 138.597 151.699C138.597 151.699 144.602 159.449 147.388 159.971C147.975 159.065 147.753 156.778 146.994 154.495C145.842 151.026 151.732 143.979 151.732 143.979C151.732 143.979 148.872 141.504 147.303 140.779Z" fill="#C38767"/>
<path d="M151.54 149.318C154.193 150.043 155.438 146.483 155.438 146.483C155.438 146.483 156.771 146.77 156.943 146.351C157.118 145.927 156.639 144.014 156.892 143.707C157.741 142.673 158.073 142.887 158.424 140.485C158.776 138.083 156.94 135.924 154.357 135.665C153.408 136.016 150.284 140.659 149.511 144.358C148.966 146.97 150.197 148.951 151.54 149.318Z" fill="#C38767"/>
<path d="M152.105 142.708L153.467 140.91C153.467 140.91 157.24 140.362 158.629 138.55C159.112 137.92 158.963 136.582 157.561 135.005C156.159 133.427 149.2 130.235 146.016 134.839C143.263 138.82 144.731 142.58 146.323 143.782C147.916 144.984 152.105 142.708 152.105 142.708Z" fill="#3E2344"/>
<path d="M144.075 144.48C142.739 143.835 142.532 142.085 141.309 141.314C139.702 140.299 137.64 141.201 135.955 141.477C134.593 141.7 132.981 141.544 131.862 140.63C130.423 139.453 130.362 137.326 130.991 135.704C131.601 134.131 133.042 133.136 133.756 131.64C134.692 129.678 129.38 129.601 129.805 126.698C129.94 125.771 131.396 124.536 131.405 124.528C131.264 125.22 132.16 127.51 135.222 125.587C141.303 121.767 141.762 127.521 143.059 127.952C146.79 129.191 146.506 122.501 155.001 124.234C156.884 124.618 158.671 126.037 158.877 127.95C159.101 130.02 158.812 131.282 160.402 135.157C160.994 136.599 160.797 138.181 159.643 138.996C157.223 140.707 154.179 139.208 151.555 139.091C150.574 139.047 149.326 139.335 149.213 140.505C149.11 141.567 150.336 143.246 148.942 143.826C148.174 144.145 147.335 144.199 146.531 144.381C145.698 144.569 144.911 144.884 144.075 144.48Z" fill="#3E2344"/>
<path d="M152.345 142.436C152.345 142.436 152.822 140.358 151.792 140.095C150.761 139.832 150.104 140.834 149.907 141.491C149.709 142.149 149.633 143.893 150.841 144.308C151.398 144.499 151.907 144.161 152.345 142.436Z" fill="#C38767"/>
<path d="M153.694 146.113C153.809 146.742 154.457 147.314 155.011 147.445" stroke="#FDF4F0" stroke-width="0.415" stroke-linecap="round" stroke-linejoin="round"/>
<path d="M155.514 143.309C155.514 143.309 155.685 143.101 156.568 143.208C156.767 143.232 157.001 143.297 157.106 143.238C157.211 143.179 156.978 143.489 156.621 143.406L155.514 143.309Z" fill="#552F5E"/>
<path d="M156.533 143.677C156.511 143.836 156.312 143.939 156.088 143.907C155.865 143.875 155.433 143.643 155.455 143.485C155.477 143.326 155.488 143.156 156.23 143.274C156.453 143.31 156.556 143.518 156.533 143.677Z" fill="#552F5E"/>
<path d="M155.754 142.098C155.728 142.137 156.291 142.05 156.75 142.15C157.363 142.284 157.669 142.548 158.008 142.485C158.158 142.456 158.219 142.328 158.31 142.177C157.89 142.036 157.326 141.822 156.925 141.757C156.523 141.693 155.983 141.76 155.754 142.098Z" fill="#552F5E"/>
<path d="M150.887 143.409C150.959 143.074 151.052 142.685 151.132 142.33C151.313 142.312 151.483 142.324 151.67 142.29C151.853 141.676 152.145 140.42 151.288 140.721C150.585 140.968 149.951 143.184 150.887 143.409Z" fill="#C38767"/>
<path d="M152.29 140.525C152.29 140.525 152.455 141.98 151.986 143.341C151.554 144.597 148.423 145.971 148.971 148.823C149.52 151.674 151.573 150.812 151.799 150.34C151.799 150.34 149.877 151.095 149.499 148.838C149.101 146.464 152.061 145.075 152.69 143.67C153.319 142.265 153.482 140.612 153.482 140.612L152.29 140.525Z" fill="#3E2344"/>
<path d="M140.662 149.89C140.662 149.89 145.826 155.437 148.181 156.983C148.181 156.983 152.896 163.287 152.506 167.473C152.197 170.794 148.695 208.251 148.695 208.251C146.312 209.456 131.648 207.209 128.604 200.857C128.604 200.857 130.744 188.318 135.053 177.091C136.211 174.076 133.957 163.763 134.142 160.416C134.507 153.828 140.662 149.89 140.662 149.89Z" fill="#015E95"/>
<path d="M142.645 151.967C142.645 151.967 139.869 158.504 140.592 163.716C141.314 168.928 142.904 176.167 143.049 179.498C143.193 182.828 137.702 206.283 137.702 206.283" stroke="#3E2344" stroke-width="0.399" stroke-miterlimit="10"/>
<path d="M138.693 156.299C133.902 160.459 136.924 171.549 139.159 176.669C140.932 180.886 145.817 185.743 150.507 187.373C150.676 184.996 151.354 180.498 151.354 177.782C145.907 173.435 141.363 162.541 138.693 156.299Z" fill="#01305E"/>
<path d="M158.549 183.55C162.523 183.027 172.456 181.685 176.327 181.161C177.255 181.036 177.972 180.289 178.066 179.356C179.017 179.412 179.884 178.81 180.165 177.898L185.156 161.733C185.433 160.837 184.909 159.89 184.003 159.652L177.885 179.091L156.557 182.125L156.558 182.126C156.749 183.05 157.615 183.673 158.549 183.55Z" fill="#3E2344"/>
<path d="M184.003 159.652L180.524 160.106L175.232 178.075L177.885 179.091L184.003 159.652Z" fill="#9D68AA"/>
<path d="M180.597 161.582L182.872 161.392L177.948 176.842L176.281 176.358L180.597 161.582Z" fill="white"/>
<path d="M175.232 178.075L157.35 180.59L156.557 182.125L177.885 179.091L175.232 178.075Z" fill="#E4BCE8"/>
<path d="M170.677 176.193C170.718 176.198 172.43 176.271 172.836 176.48C173.242 176.688 173.972 178.007 173.972 178.007C173.972 178.007 172.468 178.1 172.02 177.886C171.572 177.672 170.677 176.193 170.677 176.193Z" fill="#C38767"/>
<path d="M164.786 176.758C164.786 176.758 168.132 175.583 169.3 175.457C170.42 175.335 170.515 176.089 170.982 176.237C171.498 176.347 171.777 176.624 172.243 177.057C172.671 177.455 173.716 177.384 174.278 177.744C174.626 177.968 175.251 179.214 175.336 179.601C175.421 179.988 174.891 179.988 174.578 179.846C174.265 179.704 173.859 178.801 173.564 178.654C173.269 178.507 171.971 178.885 171.971 178.885C171.971 178.885 170.536 181.478 166.231 180.572C161.501 179.577 164.786 176.758 164.786 176.758Z" fill="#C38767"/>
<path d="M140.412 153.5C138.076 153.841 136.216 154.578 136.445 162.384C136.675 170.191 139.866 181.371 146.722 183.041C153.578 184.712 165.364 181.233 165.364 181.233C167.828 179.843 166.79 175.635 163.972 175.863C159.059 176.261 154.989 177.291 148.97 175.913C146.64 175.379 146.357 164.089 145.933 160.397C145.508 156.706 143.384 153.065 140.412 153.5Z" fill="#0273A5"/>
<path d="M279.808 236.186C280.762 236.463 281.312 235.967 282.008 235.386C282.532 234.947 283.29 234.946 283.683 234.981C283.179 234.389 283.025 233.801 282.939 233.186C282.687 231.391 282.61 226.954 282.61 226.954L277.835 227.16L277.531 234.493C277.531 234.493 277.529 234.501 277.526 234.513C277.911 234.981 278.411 235.781 279.808 236.186Z" fill="#6E4C41"/>
<path d="M289.259 239.813C289.384 239.181 289.464 237.871 288.138 237.414C285.616 236.545 284.347 235.759 283.683 234.98C283.29 234.945 282.532 234.947 282.008 235.385C281.312 235.967 280.762 236.463 279.808 236.186C278.411 235.781 277.911 234.981 277.526 234.513C277.48 234.689 277.127 236.043 277.085 236.528C277.06 236.804 277.086 237.378 277.115 237.849C280.394 238.091 280.73 239.092 284.989 239.688C287.733 240.071 288.826 239.951 289.259 239.813Z" fill="#0F253B"/>
<path d="M280.844 239.234L281.057 239.084C281.057 239.084 281.245 239.218 282.661 239.685C284.106 240.162 288.475 240.638 289.17 240.163C289.17 240.163 289.217 240.026 289.259 239.813C288.826 239.951 287.733 240.072 284.99 239.688C280.731 239.093 280.395 238.091 277.115 237.849C277.14 238.253 277.167 238.582 277.167 238.582C277.769 239.111 279.791 239.44 280.844 239.234Z" fill="#EFEFEF"/>
<path d="M261.95 236.344C263.375 236.055 263.94 235.299 264.361 234.865C264.359 234.852 264.358 234.844 264.358 234.844L264.657 227.51L259.915 226.912C259.915 226.912 259.474 231.328 259.076 233.096C258.939 233.702 258.737 234.274 258.186 234.823C258.582 234.821 259.336 234.885 259.823 235.365C260.469 236.002 260.976 236.541 261.95 236.344Z" fill="#6E4C41"/>
<path d="M264.361 234.864C263.939 235.299 263.375 236.054 261.95 236.344C260.976 236.541 260.469 236.001 259.823 235.364C259.336 234.885 258.581 234.82 258.186 234.823C257.461 235.544 256.132 236.223 253.547 236.881C252.188 237.227 252.16 238.54 252.233 239.179C252.653 239.353 253.733 239.563 256.498 239.407C260.791 239.164 261.209 238.194 264.497 238.223C264.564 237.755 264.637 237.186 264.636 236.909C264.633 236.422 264.393 235.043 264.361 234.864Z" fill="#0F253B"/>
<path d="M256.498 239.407C253.733 239.563 252.653 239.353 252.233 239.179C252.257 239.395 252.293 239.535 252.293 239.535C252.947 240.066 257.341 239.952 258.819 239.596C260.269 239.246 260.467 239.128 260.467 239.128L260.667 239.296C261.7 239.588 263.742 239.426 264.385 238.948C264.385 238.948 264.439 238.623 264.497 238.223C261.209 238.194 260.791 239.164 256.498 239.407Z" fill="#EFEFEF"/>
<path d="M274.125 156.155C271.414 149.256 262.978 148.699 261.273 155.892C258.001 171.752 262.126 187.583 258.788 228.004C260.558 229.341 263.099 229.576 265.011 228.691C267.116 228.966 278.044 166.126 274.125 156.155Z" fill="#0F253B"/>
<path d="M273.258 163.643C273.258 163.643 273.258 175.641 272.336 184.475C271.415 193.309 267.599 218.23 264.703 228.382" stroke="#3B95ED" stroke-width="1.596" stroke-miterlimit="10"/>
<path d="M287.34 154.901C286.227 147.58 273.337 148.85 273.165 156.257C272.906 167.431 276.922 229.002 276.922 229.002C278.331 230.217 282.01 230.308 283.747 228.816C285.147 195.629 291.303 180.978 287.34 154.901Z" fill="#0F253B"/>
<path d="M286.419 160.479C286.419 160.479 287.34 176.565 286.419 185.399C285.498 194.233 282.602 218.625 282.734 228.909" stroke="#3B95ED" stroke-width="1.596" stroke-miterlimit="10"/>
<path d="M238.109 130.951L230.215 125.275L225.879 134.474C225.879 134.474 229.231 136.368 232.358 136.718C235.875 137.111 237.399 137.997 237.399 137.997C237.399 137.997 241.334 136.268 238.109 130.951Z" fill="#6E4C41"/>
<path d="M270.587 122.256C270.778 117.792 261.424 109.272 259.36 115.091C257.827 119.412 256.474 134.846 254.826 135.612C253.472 136.24 238.204 130.365 238.204 130.365C237.406 130.059 234.715 137.068 235.513 137.374C242.447 143.219 253.978 148.35 259.078 146.57C264.177 144.791 270.301 128.93 270.587 122.256Z" fill="#73A5A8"/>
<path d="M232.443 117.908L234.665 135.737C234.696 135.986 234.539 136.198 234.314 136.211L224.137 136.779C224.102 136.781 224.067 136.782 224.034 136.781C223.991 136.78 223.949 136.777 223.91 136.771C223.579 136.728 223.39 136.539 223.363 136.314L221.042 117.205C221.022 117.035 221.1 116.879 221.22 116.755L221.248 116.726C221.423 116.559 221.667 116.458 221.818 116.472L231.977 117.426C232.204 117.447 232.413 117.663 232.443 117.908Z" fill="#4B762E"/>
<path d="M223.854 136.312L221.544 116.912C221.513 116.652 221.706 116.462 221.974 116.487L232.433 117.469C232.661 117.49 232.869 117.701 232.899 117.94L235.119 135.723C235.149 135.966 234.991 136.173 234.766 136.186L224.394 136.765C224.128 136.78 223.885 136.577 223.854 136.312Z" fill="#4B762E"/>
<path d="M230.955 136.164L228.589 136.291C228.506 136.296 228.431 136.231 228.421 136.146L228.375 135.766C228.365 135.681 228.423 135.609 228.506 135.605L230.872 135.49C230.952 135.486 231.024 135.55 231.034 135.633L231.08 136.006C231.09 136.089 231.034 136.159 230.955 136.164Z" fill="#4B762E"/>
<path d="M230.955 136.164L228.639 136.289C228.557 136.293 228.481 136.228 228.471 136.143L228.43 135.809C228.42 135.724 228.479 135.652 228.561 135.648L230.877 135.534C230.957 135.531 231.03 135.595 231.04 135.678L231.08 136.006C231.09 136.089 231.034 136.16 230.955 136.164Z" fill="white"/>
<path d="M232.281 118.77L234.238 134.477C234.243 134.522 234.239 134.564 234.226 134.601C234.197 134.691 234.122 134.755 234.026 134.76L224.827 135.191C224.817 135.191 224.807 135.191 224.797 135.191C224.748 135.189 224.701 135.173 224.66 135.148C224.644 135.138 224.627 135.127 224.613 135.114C224.583 135.09 224.558 135.059 224.54 135.024C224.535 135.016 224.531 135.007 224.527 134.998C224.519 134.98 224.513 134.961 224.508 134.941C224.506 134.932 224.505 134.921 224.504 134.911L222.476 117.925C222.457 117.767 222.57 117.649 222.728 117.663L225.138 117.876L225.558 118.484C225.598 118.543 225.661 118.581 225.725 118.587L229.598 118.909C229.658 118.914 229.709 118.886 229.734 118.835L229.991 118.304L232.001 118.482C232.137 118.494 232.263 118.624 232.281 118.77Z" fill="white"/>
<path d="M232.675 128.732L230.349 126.199C230.313 126.159 230.215 126.198 230.102 126.275L229.561 125.686C229.982 125.183 230.25 124.546 230.28 123.842C230.353 122.147 229.034 120.71 227.34 120.64C225.646 120.57 224.209 121.893 224.137 123.588C224.064 125.283 225.383 126.72 227.077 126.789C227.866 126.822 228.598 126.55 229.164 126.08L229.69 126.653C229.605 126.76 229.558 126.854 229.595 126.894L231.921 129.426C232.084 129.604 232.838 128.91 232.675 128.732ZM227.104 126.164C225.754 126.108 224.704 124.964 224.761 123.614C224.819 122.263 225.964 121.21 227.313 121.265C228.663 121.321 229.713 122.465 229.656 123.816C229.598 125.167 228.453 126.22 227.104 126.164Z" fill="#343434"/>
<path d="M228.212 117.861C228.255 118.214 228.016 118.477 227.677 118.448C227.337 118.419 227.026 118.107 226.983 117.752C226.94 117.398 227.181 117.136 227.521 117.167C227.859 117.198 228.169 117.508 228.212 117.861Z" fill="white"/>
<path d="M236.07 128.363C236.07 128.363 233.684 125.642 232.572 125.726C231.46 125.81 232.465 127.493 233.371 128.251C234.276 129.01 233.434 130.843 234.847 131.553C236.26 132.263 237.356 130.518 236.07 128.363Z" fill="#6E4C41"/>
<path d="M290.041 117C286.616 109.741 273.693 109.012 273.08 108.742C273.08 108.742 260.719 109.814 257.558 117.224C256.566 122.594 260.77 141.15 258.921 160.911C259.218 164.765 288.914 163.662 288.499 159.818C286.039 138.943 292.337 121.864 290.041 117Z" fill="#3B95ED"/>
<path d="M275.793 101.27C275.793 101.27 275.82 104.231 276.529 106.589C277.237 108.947 278.119 109.717 279.147 110.77C280.175 111.822 276.905 118.124 270.902 118.856C268.778 117.257 265.709 114.332 267.884 111.555C269.674 109.269 270.967 109.143 270.61 105.895C270.298 103.065 270.104 101.493 270.104 101.493L275.793 101.27Z" fill="#6E4C41"/>
<path d="M277.04 107.975L277.671 110.592C277.671 110.592 277.505 118.237 272.553 117.772C266.885 117.24 270.389 108.482 270.389 108.482C270.389 108.482 268.175 108.456 266.014 111.63C263.912 115.049 261.252 126.567 271.465 127.307C281.926 128.065 281.664 114.319 281.557 112.423C281.792 108.328 277.04 107.975 277.04 107.975Z" fill="#02B1C9"/>
<path d="M279.054 114.533C279.628 114.252 278.501 124.415 271.362 123.873C264.223 123.33 267.161 113.585 267.652 113.422C268.143 113.259 266.275 121.532 271.411 121.758C276.269 121.971 278.788 114.662 279.054 114.533Z" fill="#00A39B"/>
<path d="M291.749 132.301C292.476 132.274 292.631 136.636 291.905 136.662L281.552 137.038C281.024 137.058 280.868 132.697 281.397 132.677L291.749 132.301Z" fill="#1B809B"/>
<path d="M244.449 153.319C253.683 161.92 268.141 161.392 276.741 152.14C285.341 142.888 284.827 128.414 275.593 119.813C266.359 111.212 251.901 111.739 243.301 120.992C234.701 130.244 235.215 144.717 244.449 153.319ZM273.832 121.707C282.022 129.336 282.478 142.173 274.851 150.379C267.223 158.585 254.4 159.053 246.21 151.424C238.02 143.796 237.564 130.959 245.192 122.753C252.819 114.547 265.642 114.079 273.832 121.707Z" fill="#1D9AB7"/>
<g style="mix-blend-mode:multiply" opacity="0.3">
<path d="M273.832 121.707C282.022 129.336 282.478 142.173 274.851 150.379C267.223 158.585 254.4 159.053 246.21 151.424C238.02 143.796 237.564 130.959 245.192 122.753C252.819 114.546 265.642 114.078 273.832 121.707Z" fill="#71BF9D"/>
</g>
<g opacity="0.4">
<path d="M254.135 142.9C261.738 149.982 280.87 141.771 273.789 149.389C266.708 157.006 254.804 157.441 247.201 150.359C239.598 143.277 239.175 131.361 246.256 123.743C253.337 116.125 246.532 135.818 254.135 142.9Z" fill="white"/>
</g>
<g opacity="0.3">
<path d="M274.761 130.316C276.811 130.242 278.578 133.147 278.708 136.806C278.838 140.464 277.282 143.491 275.231 143.566C273.181 143.641 271.414 140.735 271.284 137.077C271.154 133.418 272.711 130.391 274.761 130.316Z" fill="white"/>
</g>
<path d="M317.51 129.55C319.393 129.482 319.678 137.476 317.795 137.545L290.973 138.52C289.604 138.57 289.319 130.575 290.688 130.525L317.51 129.55Z" fill="#1D9AB7"/>
<path d="M317.352 134.355C317.212 134.026 291.996 134.789 291.996 134.789C291.996 134.789 291.553 136.137 292.298 137.372L317.197 136.143C317.197 136.143 317.734 135.252 317.352 134.355Z" fill="#24A7BC"/>
<path d="M297.573 129.927C297.663 130.012 297.722 130.131 297.727 130.265C297.733 130.442 297.644 130.599 297.506 130.689C297.138 131.61 297.328 136.965 297.762 137.857C297.907 137.936 298.006 138.088 298.012 138.265C298.022 138.532 297.812 138.757 297.545 138.767C297.413 138.771 297.162 138.735 296.972 138.429C296.334 137.41 296.114 131.239 296.678 130.176C296.846 129.858 297.093 129.803 297.225 129.798C297.359 129.793 297.482 129.843 297.573 129.927Z" fill="#1B809B"/>
<path d="M311.629 129.488C311.939 129.777 312.097 130.349 312.21 130.915C312.359 131.661 312.462 132.662 312.5 133.735C312.539 134.808 312.507 135.815 312.412 136.571C312.308 137.395 312.112 138.241 311.444 138.266C311.176 138.276 310.951 138.067 310.942 137.799C310.934 137.585 311.066 137.399 311.255 137.328C311.757 136.479 311.563 131.057 311.003 130.247C310.809 130.19 310.665 130.013 310.657 129.799C310.647 129.532 310.856 129.307 311.124 129.297C311.328 129.289 311.493 129.361 311.629 129.488Z" fill="#1B809B"/>
<path d="M287.672 139.072C280.259 141.269 265.859 146.697 265.859 146.697L265.859 146.698C264.722 146.499 263.639 146.688 263.137 146.82C262.608 146.959 261.26 147.6 260.867 147.793C259.956 148.242 260.836 148.902 261.524 148.848C262.5 148.771 262.859 148.598 263.265 148.664C263.45 148.694 263.609 148.739 263.758 148.788C263.454 149.109 263.155 149.387 262.866 149.553C262.791 149.596 262.73 149.65 262.674 149.708C261.972 150.077 261.408 150.339 260.84 150.593C260.209 150.876 259.608 151.003 258.673 151.294C258.255 151.424 258.319 151.975 258.794 152.068C259.128 152.133 260.28 152.148 261.296 151.772C261.699 151.624 262.105 151.459 262.477 151.29C262.485 151.327 262.493 151.364 262.502 151.401C262.033 151.634 261.613 151.827 261.19 152.016C260.576 152.29 259.958 152.398 259.062 152.72C258.65 152.867 258.758 153.348 259.236 153.42C259.365 153.439 259.608 153.461 259.914 153.461C259.744 153.677 259.861 154.02 260.24 154.072C260.418 154.097 260.79 154.067 261.254 153.999C261.309 154.112 261.428 154.206 261.613 154.233C262.197 154.319 263.946 154.206 265.205 153.64C265.83 153.487 267.199 152.985 268.24 152.4C268.241 152.399 268.243 152.4 268.244 152.399C268.244 152.399 283.338 149.753 289.267 146.602C293.713 144.238 292.5 137.641 287.672 139.072Z" fill="#6E4C41"/>
<path d="M287.959 114.311C282.972 108.85 280.503 118.504 281.498 122.963C282.399 127 286.972 132.69 286.328 137.053C286.13 138.396 284.358 139.352 282.74 140.037C282.542 140.121 282.482 140.366 282.611 140.54C284.06 142.499 284.744 145.749 284.613 148.026C284.583 148.553 285.037 148.98 285.559 148.912C291.689 148.121 295.33 144.311 295.939 142.935C298.745 136.589 293.554 120.438 287.959 114.311Z" fill="#3B95ED"/>
<path d="M273.683 105.973C273.683 105.973 275.532 105.347 277.616 101.68C278.982 99.2757 279.807 89.2721 272.037 89.0442C264.266 88.8163 262.87 94.2759 263.064 97.6657C263.258 101.055 267.439 103.194 269.325 104.121C271.212 105.048 273.683 105.973 273.683 105.973Z" fill="#3E2344"/>
<path d="M274.896 101.8C274.896 101.8 275.486 103.914 274.768 104.978C274.049 106.042 272.856 108.524 269.275 108.842C264.492 109.267 265.117 101.461 265.117 101.461C265.117 101.461 264.158 98.6534 264.27 96.2006C264.381 93.7477 268.861 91.7428 272.86 92.2826C272.86 92.2826 274.123 93.1462 274.454 97.876C274.454 97.876 275.021 96.9154 276.224 97.3379C277.137 97.6583 277.4 98.7272 277.28 99.795C277.136 101.075 276.03 102.338 274.896 101.8Z" fill="#6E4C41"/>
<path d="M265.122 101.462C265.122 101.462 263.362 105.425 264.658 108.083C265.954 110.742 269.65 111.353 272.85 108.898C276.051 106.442 275.612 103.644 274.989 101.934C274.818 101.464 274.087 100.146 274.087 100.146L273.888 98.91L272.755 104C272.755 104 271.009 102.404 267.659 103.278C265.102 103.944 265.403 105.477 265.403 105.477C265.154 104.251 265.071 102.909 265.122 101.462Z" fill="#3E2344"/>
<path d="M275.215 101.288L275.452 100.113L274.694 99.9339C274.694 99.9339 274.821 97.7875 276.098 98.3633C277.148 98.8363 276.467 101.516 275.215 101.288Z" fill="#6E4C41"/>
<path d="M274.081 100.142C274.081 100.142 272.966 98.3094 273.22 96.5323C273.448 94.9401 272.072 94.0143 271.216 94.059C270.236 94.1103 267.209 95.2191 265.993 95.5568C260.777 97.0056 261.934 91.3449 263.85 90.319C265.766 89.2931 270.49 87.6948 273.382 89.1936C275.275 90.1744 277.136 94.0737 275.234 96.5197C274.366 97.6344 274.081 100.142 274.081 100.142Z" fill="#3E2344"/>
<path d="M266.926 104.623C267.743 105.91 270.293 104.768 270.385 103.768L266.926 104.623Z" fill="white"/>
<path d="M266.926 104.623C267.743 105.91 270.293 104.768 270.385 103.768L266.926 104.623Z" stroke="#6E4C41" stroke-width="0.54" stroke-linecap="round" stroke-linejoin="round"/>
<g opacity="0.5">
<path d="M267.653 103.273C267.653 103.273 268.618 103.082 268.553 102.82C268.488 102.557 266.408 102.596 266.327 102.806C266.246 103.016 267.197 103.222 267.653 103.273Z" fill="#6E4C41"/>
</g>
<path d="M266.832 99.2559C266.832 99.2559 267.313 100.428 267.238 100.89C267.163 101.353 266.431 102.487 266.446 102.699C266.461 102.911 267.573 103.254 267.653 103.272C267.734 103.29 266.153 103.305 266.12 102.818C266.088 102.332 267.041 100.943 267.044 100.701C267.047 100.459 266.832 99.2559 266.832 99.2559Z" fill="#6E4C41"/>
<path d="M266.545 100.793C266.605 101.137 266.394 101.152 266.103 101.204C265.813 101.255 265.553 101.324 265.493 100.98C265.432 100.636 265.618 100.316 265.909 100.264C266.199 100.213 266.484 100.449 266.545 100.793Z" fill="#3E2344"/>
<path d="M269.948 99.9896C270 100.335 269.772 100.401 269.481 100.444C269.189 100.488 268.943 100.493 268.891 100.148C268.84 99.8025 269.035 99.4876 269.327 99.4437C269.619 99.4001 269.897 99.6444 269.948 99.9896Z" fill="#3E2344"/>
<path d="M271.027 98.0396C271.046 98.0763 270.167 97.9709 269.784 98.038C269.402 98.1052 267.993 98.5715 267.849 98.4506C267.705 98.3298 267.532 97.8601 267.532 97.8601C267.532 97.8601 269.545 97.1784 269.968 97.2153C270.39 97.2523 270.863 97.7244 271.027 98.0396Z" fill="#3E2344"/>
<path d="M264.439 99.5898C264.443 99.6304 264.772 99.2123 265.025 99.1206C265.277 99.0289 266.548 98.9311 266.586 98.765C266.623 98.5988 266.54 98.1067 266.54 98.1067C266.54 98.1067 264.817 98.4286 264.581 98.6298C264.346 98.831 264.411 99.2405 264.439 99.5898Z" fill="#3E2344"/>
</g>
<g clip-path="url(#clip1_176_76)">
<mask id="mask1_176_76" style="mask-type:luminance" maskUnits="userSpaceOnUse" x="316" y="151" width="58" height="59">
<path d="M373.517 151.931H316.346V209.192H373.517V151.931Z" fill="white"/>
</mask>
<g mask="url(#mask1_176_76)">
<path d="M336.568 202.135C336.06 201.902 335.7 201.807 335.355 201.433C335.332 201.408 335.312 201.368 335.295 201.32C335.22 201.115 334.993 201.01 334.793 201.095C334.322 201.296 333.43 201.422 333.231 201.745C332.902 202.282 332.822 202.98 333.213 203.178C333.961 203.557 338.35 203.376 338.279 202.953C338.236 202.7 337.33 202.485 336.568 202.135Z" fill="#253033"/>
<path d="M327.435 202.135C326.928 201.902 326.568 201.807 326.223 201.433C326.199 201.408 326.179 201.368 326.162 201.32C326.088 201.115 325.861 201.01 325.661 201.095C325.189 201.296 324.297 201.422 324.099 201.745C323.769 202.282 323.69 202.98 324.081 203.178C324.829 203.557 329.218 203.376 329.146 202.953C329.103 202.7 328.197 202.485 327.435 202.135Z" fill="#253033"/>
<path d="M336.87 163.104L341.658 170.837C341.658 170.837 344.058 164.492 345.812 164.525C347.566 164.558 346.479 173.212 343.17 174.645C337.977 176.895 335.819 167.876 335.819 167.876L336.87 163.104Z" fill="#DDC1A6"/>
<path d="M336.87 163.104L335.819 167.876C335.819 167.876 336.249 169.672 337.186 171.461C338.347 170.148 339.219 168.493 339.649 167.592L336.87 163.104Z" fill="#F8F8F9"/>
<path d="M332.908 159.323C332.908 159.323 333.336 158.817 333.237 158.436C333.083 157.846 332.589 157.447 331.974 157.623C331.415 157.782 331.255 158.175 331.255 158.175C331.255 158.175 330.721 158.303 330.519 158.93C330.318 159.557 330.339 160.833 331.119 160.859C331.899 160.886 332.908 159.323 332.908 159.323Z" fill="#253033"/>
<path d="M346.684 163.833C346.828 164.212 346.749 164.652 346.443 164.918C346.338 165.01 346.213 165.073 346.071 165.063C345.599 165.032 345.046 164.043 345.47 163.674C345.894 163.305 346.421 163.371 346.569 163.594C346.61 163.657 346.649 163.742 346.684 163.833Z" fill="#DDC1A6"/>
<path d="M337.594 176.957C337.608 174.761 337.871 167.961 337.871 167.961C337.871 167.961 337.782 166.174 337.604 164.688C337.471 163.579 336.696 162.652 335.628 162.329C332.772 161.464 328.655 160.929 325.959 164.161C325.168 165.109 327.434 167.457 327.735 169.216C327.735 169.216 328.16 172.045 327.089 176.113C328.566 177.043 334.359 177.369 337.594 176.957Z" fill="#F8F8F9"/>
<path d="M331.053 159.893L330.748 162.078C330.745 162.382 331.986 163.133 332.465 162.749C332.605 162.636 332.565 162.345 332.433 162.029L331.646 160.311L331.053 159.893Z" fill="#DDC1A6"/>
<path d="M331.804 160.657C331.47 160.598 331.013 160.511 331.013 160.511C331.013 160.511 331.043 161.045 331.509 161.445C331.757 161.658 332.045 161.759 332.318 161.778L331.804 160.657Z" fill="#CCAF9A"/>
<path d="M331.516 159.116L331.048 160.292C330.924 160.691 331.14 161.117 331.535 161.252C331.851 161.359 332.059 161.372 332.473 161.349C332.818 161.329 333.015 161.011 333.044 160.561C333.08 159.978 332.949 159.43 332.862 159.141C332.664 158.481 331.878 158.372 331.516 159.116Z" fill="#DDC1A6"/>
<path d="M331.493 159.713C331.481 159.636 331.481 159.557 331.486 159.479C331.495 159.33 331.475 159.107 331.248 159.202C330.917 159.34 330.911 160.135 331.275 160.218C331.544 160.28 331.522 159.909 331.493 159.713Z" fill="#DDC1A6"/>
<path d="M332.242 160.039C332.242 160.039 332.521 160.127 332.924 160.103C332.924 160.103 332.918 160.365 332.754 160.446C332.59 160.526 332.316 160.357 332.242 160.039Z" fill="white"/>
<path d="M332.608 160.909C332.23 160.808 331.902 161.371 331.255 160.777C331.134 160.666 331.083 160.415 331.058 160.266L331.048 160.292C330.924 160.691 331.14 161.117 331.535 161.252C331.851 161.359 332.059 161.372 332.473 161.349C332.684 161.337 332.839 161.213 332.934 161.017C332.865 161.024 332.723 160.94 332.608 160.909Z" fill="#253033"/>
<path d="M336.241 165.872C335.971 164.902 335.271 163.098 334.822 162.104C334.822 162.104 334.318 161.76 333.371 161.808C333.371 161.808 334.114 163.697 334.073 164.717L331.013 165.079L330.097 161.793C330.097 161.793 329.019 161.876 328.077 162.454C328.077 162.454 332.031 167.414 327.397 174.788L326.866 176.897C326.051 179.858 325.417 183.238 325.006 186.756C324.251 193.221 321.524 198.917 324.169 201.661C324.548 202.054 325.833 202.384 326.31 201.988C330.501 198.505 331.948 182.205 332.266 181.236C332.346 180.995 332.583 181.182 332.611 181.435L332.951 189.726C332.951 189.726 331.529 200.102 332.668 201.381C333.128 201.898 335.098 202.17 335.819 201.462C338.256 199.072 338.698 190.195 338.704 188.403C338.737 177.738 337.763 171.329 336.241 165.872Z" fill="#4B762E"/>
<path d="M330.872 166.618L335.57 166.375C335.57 166.375 336.263 167.688 334.685 168.909C333.106 170.13 330.928 168.968 330.872 166.618Z" fill="#7ED321"/>
<path d="M327.395 162.856C327.395 162.856 319.963 167.333 319.779 171.975C319.624 175.854 325.793 179.888 326.98 178.594C327.814 177.684 324.037 172.025 324.132 171.505C324.297 170.612 327.422 169.5 328.23 166.882C328.579 165.75 328.341 163.369 327.395 162.856Z" fill="#DDC1A6"/>
<path d="M329.249 181.7H328.809V180.032H325.416V181.7H324.976V179.812C324.976 179.69 325.075 179.592 325.196 179.592H329.029C329.151 179.592 329.249 179.69 329.249 179.812V181.7Z" fill="#FDC54E"/>
<path d="M332.047 181.989H322.179H321.811L322.478 186.128C322.495 186.233 322.585 186.31 322.691 186.31H331.534C331.64 186.31 331.731 186.233 331.748 186.128L332.415 181.989H332.047Z" fill="#FADB79"/>
<path d="M346.528 167.201C346.381 167.232 346.237 167.138 346.206 166.991C346.175 166.844 346.27 166.7 346.416 166.669C346.563 166.638 346.707 166.733 346.738 166.879C346.768 167.026 346.674 167.17 346.528 167.201ZM346.736 166.435L345.682 161.402C345.642 161.211 345.657 161.013 345.726 160.831C345.811 160.606 345.896 160.276 345.796 160.08C345.561 159.621 345.101 159.675 345.101 159.675L345.318 160.088C345.365 160.177 345.356 160.286 345.294 160.366L345.238 160.438C345.189 160.503 345.112 160.54 345.03 160.539L344.933 160.538C344.812 160.537 344.708 160.451 344.683 160.332L344.596 159.92C344.489 159.991 344.427 160.11 344.391 160.241C344.305 160.559 344.396 160.899 344.62 161.14C344.633 161.153 344.646 161.166 344.661 161.177C344.828 161.31 344.961 161.482 345.005 161.691L346.029 166.583C345.903 166.744 345.859 166.968 345.96 167.182C346.05 167.372 346.246 167.5 346.455 167.504C346.835 167.511 347.101 167.168 347.028 166.818C346.992 166.647 346.88 166.511 346.736 166.435Z" fill="#808285"/>
<path d="M345.184 165.037C345.184 165.037 344.165 163.762 345.184 163.427C345.184 163.427 345.821 163.196 345.924 163.104C346.027 163.012 346.21 163.267 345.892 163.594C345.619 163.875 345.43 164.041 345.542 164.24C345.653 164.439 346.075 165.213 345.184 165.037Z" fill="#DDC1A6"/>
<path d="M345.951 163.23C345.951 163.23 346.613 163.104 346.672 163.388C346.731 163.673 346.641 164.22 346.63 164.448C346.618 164.676 346.235 165.039 346.084 164.687C345.933 164.335 346.033 163.683 345.97 163.647C345.908 163.611 345.636 163.258 345.951 163.23Z" fill="#DDC1A6"/>
<path d="M327.068 177.876C327.187 177.93 327.913 178.898 327.931 179.162C327.957 179.539 327.933 180.149 327.563 180.239C327.416 180.275 326.564 180.045 326.535 179.828C326.506 179.611 325.814 178.684 325.967 178.331C326.071 178.09 326.841 177.772 327.068 177.876Z" fill="#DDC1A6"/>
<path d="M328.23 166.882C328.579 165.75 328.341 163.369 327.395 162.856C327.395 162.856 324.89 164.366 322.752 166.54C322.859 167.712 323.263 169.632 324.701 170.798C325.678 169.983 327.618 168.865 328.23 166.882Z" fill="#F8F8F9"/>
<path d="M332.583 181.689C332.583 181.348 332.306 181.07 331.965 181.07H322.26C321.919 181.07 321.643 181.348 321.643 181.689V182.036C321.643 182.179 321.758 182.295 321.901 182.295H326.345C326.498 182.295 326.635 182.392 326.685 182.538L326.827 182.949C326.894 183.145 327.079 183.277 327.287 183.277H328.19C328.414 183.277 328.609 183.124 328.663 182.906L328.745 182.57C328.785 182.408 328.929 182.295 329.095 182.295H332.324C332.467 182.295 332.583 182.179 332.583 182.036V181.689Z" fill="#FDC54E"/>
<path d="M345.515 176.522V177.054C345.515 177.339 345.719 177.569 345.971 177.569H348.011C348.263 177.569 348.467 177.339 348.467 177.054V176.522H345.515Z" fill="#F9D467"/>
<path d="M348.884 176.908H345.098V176.809C345.098 176.437 345.399 176.136 345.77 176.136H348.212C348.583 176.136 348.884 176.437 348.884 176.809V176.908Z" fill="#CCCCCA"/>
<path d="M349.758 176.369V176.902C349.758 177.186 349.962 177.417 350.214 177.417H352.253C352.505 177.417 352.71 177.186 352.71 176.902V176.369H349.758Z" fill="#F9D467"/>
<path d="M353.126 176.908H349.341V176.809C349.341 176.437 349.642 176.136 350.012 176.136H352.455C352.826 176.136 353.126 176.437 353.126 176.809V176.908Z" fill="#CCCCCA"/>
<path d="M354 176.522V177.054C354 177.339 354.205 177.569 354.457 177.569H356.496C356.748 177.569 356.953 177.339 356.953 177.054V176.522H354Z" fill="#F9D467"/>
<path d="M357.369 176.908H353.584V176.809C353.584 176.437 353.885 176.136 354.255 176.136H356.698C357.068 176.136 357.369 176.437 357.369 176.809V176.908Z" fill="#CCCCCA"/>
<path d="M358.243 176.522V177.054C358.243 177.339 358.448 177.569 358.7 177.569H360.739C360.991 177.569 361.195 177.339 361.195 177.054V176.522H358.243Z" fill="#F9D467"/>
<path d="M361.612 176.908H357.827V176.809C357.827 176.437 358.128 176.136 358.498 176.136H360.94C361.311 176.136 361.612 176.437 361.612 176.809V176.908Z" fill="#CCCCCA"/>
<path d="M346.53 203.385H365.605V177.302H346.53V203.385Z" fill="#CCCCCA"/>
<path d="M341.952 203.385H361.027V177.302H341.952V203.385Z" fill="#EDEDED"/>
<path d="M344.925 181.395L344.899 178.417L345.604 178.397C346.403 178.397 347.05 179.073 347.05 179.906C347.05 180.739 346.403 181.415 345.604 181.415L344.925 181.395Z" fill="#4B762E"/>
<path d="M344.899 181.395C345.697 181.395 346.345 180.729 346.345 179.906C346.345 179.083 345.697 178.417 344.899 178.417C344.1 178.417 343.452 179.083 343.452 179.906C343.452 180.729 344.1 181.395 344.899 181.395Z" fill="#96CACD"/>
<path d="M344.952 178.205H344.513V181.656H344.952L345.285 181.341V178.47L344.952 178.205Z" fill="#4B762E"/>
<path d="M348.991 181.395L348.965 178.417L349.67 178.397C350.469 178.397 351.116 179.073 351.116 179.906C351.116 180.739 350.469 181.415 349.67 181.415L348.991 181.395Z" fill="#4B762E"/>
<path d="M348.965 181.395C349.764 181.395 350.411 180.729 350.411 179.906C350.411 179.083 349.764 178.417 348.965 178.417C348.166 178.417 347.519 179.083 347.519 179.906C347.519 180.729 348.166 181.395 348.965 181.395Z" fill="#96CACD"/>
<path d="M349.019 178.205H348.579V181.656H349.019L349.351 181.341V178.47L349.019 178.205Z" fill="#4B762E"/>
<path d="M353.058 181.395L353.031 178.417L353.737 178.397C354.535 178.397 355.183 179.073 355.183 179.906C355.183 180.739 354.535 181.415 353.737 181.415L353.058 181.395Z" fill="#4B762E"/>
<path d="M353.031 181.395C353.83 181.395 354.477 180.729 354.477 179.906C354.477 179.083 353.83 178.417 353.031 178.417C352.233 178.417 351.585 179.083 351.585 179.906C351.585 180.729 352.233 181.395 353.031 181.395Z" fill="#96CACD"/>
<path d="M353.085 178.205H352.646V181.656H353.085L353.417 181.341V178.47L353.085 178.205Z" fill="#4B762E"/>
<path d="M357.124 181.395L357.098 178.417L357.803 178.397C358.602 178.397 359.249 179.073 359.249 179.906C359.249 180.739 358.602 181.415 357.803 181.415L357.124 181.395Z" fill="#4B762E"/>
<path d="M357.098 181.395C357.896 181.395 358.544 180.729 358.544 179.906C358.544 179.083 357.896 178.417 357.098 178.417C356.299 178.417 355.651 179.083 355.651 179.906C355.651 180.729 356.299 181.395 357.098 181.395Z" fill="#96CACD"/>
<path d="M357.151 178.205H356.712V181.656H357.151L357.484 181.341V178.47L357.151 178.205Z" fill="#4B762E"/>
<path d="M351.49 199.517H361.027V183.493H351.49V199.517Z" fill="#A8A9AC"/>
<path d="M361.027 199.517H356.449L353.097 183.493H357.676L361.027 199.517Z" fill="#808285"/>
<path d="M361.042 195.823C361.042 195.823 364.236 195.843 364.529 192.971C364.733 190.973 363.163 190.386 363.163 190.386C363.163 190.386 364.539 188.997 363.947 188.011C363.947 188.011 367.671 186.416 367.269 184.023C366.867 181.629 365.067 181.452 365.067 181.452C365.067 181.452 366.198 180.247 365.076 179.522C365.076 179.522 369.136 179.776 369.725 175.779C370.314 171.781 366.944 170.662 364.225 172.113C361.504 173.564 361.889 176.972 361.889 176.972C361.889 176.972 360.502 175.311 359.321 176.55C358.14 177.789 358.936 179.001 358.936 179.001C358.936 179.001 353.221 177.835 352.619 183.08C352.619 183.08 351.653 182.188 349.953 184.015C348.252 185.842 347.87 191.147 351.521 191.763C355.172 192.379 357.754 197.568 361.042 195.823Z" fill="#253033" fill-opacity="0.2"/>
<path d="M360.38 199.517H341.305L337.953 183.493H357.028L360.38 199.517Z" fill="#E6E6E4"/>
<path d="M357.695 197.294H343.06L340.638 185.717H355.273L357.695 197.294Z" fill="#A8A9AC"/>
<path d="M357.115 194.52H342.479L342.351 193.909H356.987L357.115 194.52Z" fill="#E6E7E8"/>
<path d="M356.221 190.248H341.586L341.458 189.636H356.093L356.221 190.248Z" fill="#E6E7E8"/>
<path d="M341.719 186.576H349.488L343.572 195.434L341.719 186.576Z" fill="#E6E7E8" fill-opacity="0.5"/>
<path d="M362.079 170.639C361.686 171.434 362.313 172.759 363.054 172.274C363.648 171.886 364.382 171.328 364.705 170.774C365.291 169.768 362.919 168.939 362.079 170.639Z" fill="#253033" fill-opacity="0.2"/>
<path d="M369.583 180.501C368.109 180.177 366.903 181.689 367.483 183.084C367.492 183.105 367.501 183.127 367.51 183.148C368.1 184.492 371.36 182.929 370.632 181.227C370.632 181.227 370.328 180.665 369.583 180.501Z" fill="#253033" fill-opacity="0.2"/>
</g>
</g>
</g>
<defs>
<clipPath id="clip0_176_76">
<rect width="388" height="255" fill="white"/>
</clipPath>
<clipPath id="clip1_176_76">
<rect width="57.1709" height="57.2605" fill="white" transform="translate(316.346 151.931)"/>
</clipPath>
</defs>
</svg>
