<svg width="8" height="14" viewBox="0 0 8 14" fill="none" xmlns="http://www.w3.org/2000/svg">
<path d="M7.69408 0.444695C7.88996 0.638042 8 0.900242 8 1.17364C8 1.44703 7.88996 1.70923 7.69408 1.90258L2.52205 7.00619L7.69408 12.1098C7.88441 12.3043 7.98972 12.5647 7.98734 12.835C7.98496 13.1054 7.87508 13.364 7.68135 13.5551C7.48763 13.7463 7.22557 13.8547 6.95161 13.8571C6.67765 13.8594 6.41372 13.7555 6.21666 13.5677L0.305919 7.73513C0.110039 7.54178 0 7.27958 0 7.00619C0 6.7328 0.110039 6.4706 0.305919 6.27725L6.21666 0.444695C6.4126 0.251406 6.67831 0.142822 6.95537 0.142822C7.23243 0.142822 7.49814 0.251406 7.69408 0.444695Z" fill="black"/>
</svg>
