<svg width="19" height="11" viewBox="0 0 19 11" fill="none" xmlns="http://www.w3.org/2000/svg">
<path d="M0.418219 0.420639C0.686086 0.151304 1.04934 0 1.42811 0C1.80687 0 2.17013 0.151304 2.43799 0.420639L9.50862 7.53218L16.5793 0.420639C16.8487 0.158937 17.2095 0.0141279 17.584 0.0174012C17.9585 0.0206745 18.3168 0.171768 18.5816 0.438139C18.8465 0.70451 18.9967 1.06485 18.9999 1.44154C19.0032 1.81823 18.8592 2.18114 18.599 2.4521L10.5185 10.5794C10.2506 10.8487 9.88739 11 9.50862 11C9.12986 11 8.7666 10.8487 8.49874 10.5794L0.418219 2.4521C0.150434 2.18268 0 1.81732 0 1.43637C0 1.05541 0.150434 0.690055 0.418219 0.420639Z" fill="white"/>
</svg>
