<svg width="8" height="14" viewBox="0 0 8 14" fill="none" xmlns="http://www.w3.org/2000/svg">
<path d="M0.305919 0.301873C0.110039 0.49522 0 0.75742 0 1.03081C0 1.30421 0.110039 1.56641 0.305919 1.75975L5.47795 6.86337L0.305919 11.967C0.115591 12.1614 0.0102748 12.4219 0.0126554 12.6922C0.015036 12.9625 0.124922 13.2211 0.318647 13.4123C0.512371 13.6035 0.774433 13.7119 1.04839 13.7142C1.32235 13.7166 1.58628 13.6127 1.78334 13.4249L7.69408 7.59231C7.88996 7.39896 8 7.13676 8 6.86337C8 6.58997 7.88996 6.32777 7.69408 6.13443L1.78334 0.301873C1.5874 0.108584 1.32169 0 1.04463 0C0.767573 0 0.501858 0.108584 0.305919 0.301873Z" fill="black"/>
</svg>
