<svg width="160" height="150" viewBox="0 0 160 150" fill="none" xmlns="http://www.w3.org/2000/svg">
<g filter="url(#filter0_d_287_1475)">
<path d="M77.6862 2.04105C77.6862 3.16824 76.7726 4.0821 75.6452 4.0821C74.5182 4.0821 73.6041 3.16824 73.6041 2.04105C73.6041 0.913862 74.5182 0 75.6452 0C76.7726 0 77.6862 0.913862 77.6862 2.04105Z" fill="#FAB047"/>
<path d="M85.3893 2.70252C85.2634 3.82262 84.253 4.62855 83.1329 4.50238C82.0128 4.3762 81.2071 3.36581 81.333 2.24572C81.4592 1.12562 82.4696 0.319944 83.5894 0.446117C84.7095 0.572035 85.5155 1.58243 85.3893 2.70252Z" fill="#FAB047"/>
<path d="M92.9698 4.22146C92.7192 5.32027 91.625 6.00814 90.5262 5.75732C89.4274 5.50675 88.7395 4.413 88.9903 3.31393C89.2409 2.21512 90.3351 1.527 91.434 1.77757C92.5328 2.0284 93.2204 3.12239 92.9698 4.22146Z" fill="#FAB047"/>
<path d="M100.333 6.57909C99.9607 7.6432 98.7965 8.20413 97.7321 7.83195C96.6683 7.46002 96.1073 6.29609 96.4793 5.23224C96.8514 4.16814 98.0156 3.60721 99.08 3.97914C100.144 4.35132 100.705 5.51524 100.333 6.57909Z" fill="#FAB047"/>
<path d="M107.386 9.74614C106.897 10.7618 105.678 11.189 104.662 10.7003C103.646 10.2116 103.219 8.99189 103.708 7.97618C104.197 6.96047 105.416 6.5333 106.432 7.02229C107.448 7.51076 107.875 8.73042 107.386 9.74614Z" fill="#FAB047"/>
<path d="M114.04 13.6824C113.441 14.6371 112.181 14.9252 111.227 14.3257C110.272 13.7265 109.984 12.4668 110.583 11.5122C111.183 10.5575 112.442 10.2695 113.397 10.8689C114.352 11.4681 114.64 12.7278 114.04 13.6824Z" fill="#FAB047"/>
<path d="M120.213 18.3384C119.51 19.2198 118.226 19.3652 117.345 18.6629C116.463 17.9604 116.318 16.6766 117.02 15.7952C117.723 14.9135 119.007 14.7683 119.888 15.4706C120.77 16.1729 120.915 17.4569 120.213 18.3384Z" fill="#FAB047"/>
<path d="M125.825 23.6557C125.029 24.453 123.737 24.4537 122.939 23.6572C122.142 22.8606 122.141 21.5682 122.938 20.7709C123.734 19.9734 125.026 19.9728 125.824 20.7694C126.621 21.566 126.622 22.8583 125.825 23.6557Z" fill="#FAB047"/>
<path d="M130.807 29.5675C129.926 30.2709 128.642 30.127 127.939 29.246C127.236 28.3651 127.38 27.0811 128.26 26.3778C129.141 25.6745 130.426 25.8184 131.129 26.699C131.832 27.58 131.688 28.8642 130.807 29.5675Z" fill="#FAB047"/>
<path d="M135.097 35.9995C134.143 36.6 132.883 36.3132 132.282 35.3593C131.682 34.4051 131.969 33.1452 132.923 32.5447C133.877 31.9445 135.137 32.2311 135.737 33.1852C136.338 34.1391 136.051 35.3991 135.097 35.9995Z" fill="#FAB047"/>
<path d="M138.64 42.8716C137.625 43.3613 136.405 42.9357 135.915 41.9205C135.425 40.9052 135.851 39.6853 136.866 39.1956C137.881 38.7056 139.101 39.1312 139.591 40.1464C140.081 41.1616 139.655 42.3816 138.64 42.8716Z" fill="#FAB047"/>
<path d="M141.391 50.0967C140.328 50.4699 139.163 49.9103 138.79 48.8464C138.417 47.7831 138.977 46.6184 140.04 46.2449C141.104 45.872 142.268 46.4317 142.642 47.4953C143.015 48.5589 142.455 49.7235 141.391 50.0967Z" fill="#FAB047"/>
<path d="M143.318 57.584C142.219 57.8358 141.124 57.1492 140.872 56.0507C140.62 54.9519 141.307 53.8571 142.406 53.6053C143.504 53.3534 144.599 54.04 144.851 55.1388C145.103 56.2374 144.416 57.3322 143.318 57.584Z" fill="#FAB047"/>
<path d="M144.394 65.2404C143.274 65.3676 142.263 64.5629 142.135 63.4431C142.008 62.323 142.813 61.3118 143.933 61.1847C145.053 61.0572 146.064 61.8624 146.191 62.9822C146.319 64.1023 145.514 65.1132 144.394 65.2404Z" fill="#FAB047"/>
<path d="M144.606 72.9683C143.479 72.9696 142.564 72.0565 142.563 70.9295C142.562 69.8024 143.475 68.888 144.602 68.8867C145.729 68.8855 146.644 69.7983 146.645 70.9255C146.646 72.0527 145.733 72.967 144.606 72.9683Z" fill="#FAB047"/>
<path d="M143.953 80.6725C142.833 80.5476 142.027 79.538 142.151 78.4182C142.276 77.2978 143.285 76.4909 144.406 76.6158C145.526 76.7407 146.333 77.7503 146.208 78.8704C146.083 79.9908 145.074 80.7974 143.953 80.6725Z" fill="#FAB047"/>
<path d="M142.443 88.2547C141.343 88.0054 140.654 86.9122 140.904 85.8129C141.153 84.7136 142.247 84.0247 143.345 84.2742C144.445 84.5235 145.134 85.617 144.885 86.7164C144.635 87.8157 143.542 88.5043 142.443 88.2547Z" fill="#FAB047"/>
<path d="M140.092 95.6202C139.028 95.249 138.466 94.0856 138.837 93.0212C139.208 91.9569 140.371 91.3947 141.436 91.7656C142.5 92.1365 143.062 93.3002 142.691 94.3645C142.32 95.4289 141.157 95.9911 140.092 95.6202Z" fill="#FAB047"/>
<path d="M136.933 102.676C135.917 102.188 135.488 100.97 135.976 99.9533C136.463 98.9368 137.682 98.5087 138.699 98.9964C139.715 99.4838 140.144 100.703 139.656 101.719C139.168 102.735 137.949 103.164 136.933 102.676Z" fill="#FAB047"/>
<path d="M133.004 109.335C132.048 108.737 131.759 107.478 132.358 106.522C132.956 105.567 134.215 105.278 135.17 105.876C136.125 106.474 136.415 107.734 135.817 108.689C135.218 109.644 133.959 109.933 133.004 109.335Z" fill="#FAB047"/>
<path d="M128.354 115.512C127.472 114.811 127.325 113.527 128.026 112.645C128.728 111.762 130.012 111.615 130.894 112.317C131.776 113.018 131.923 114.303 131.222 115.185C130.52 116.067 129.236 116.214 128.354 115.512Z" fill="#FAB047"/>
<path d="M123.043 121.13C122.245 120.334 122.243 119.042 123.038 118.243C123.834 117.445 125.126 117.443 125.924 118.239C126.723 119.035 126.725 120.327 125.929 121.125C125.133 121.924 123.841 121.926 123.043 121.13Z" fill="#FAB047"/>
<path d="M117.136 126.119C116.432 125.239 116.574 123.954 117.455 123.25C118.334 122.546 119.619 122.688 120.323 123.569C121.027 124.449 120.885 125.733 120.005 126.437C119.125 127.141 117.84 126.999 117.136 126.119Z" fill="#FAB047"/>
<path d="M110.709 130.415C110.107 129.462 110.393 128.201 111.346 127.6C112.299 126.999 113.56 127.284 114.161 128.237C114.762 129.191 114.477 130.451 113.523 131.053C112.57 131.654 111.31 131.369 110.709 130.415Z" fill="#FAB047"/>
<path d="M103.84 133.965C103.35 132.951 103.774 131.73 104.789 131.239C105.803 130.748 107.024 131.173 107.515 132.188C108.006 133.202 107.581 134.423 106.566 134.914C105.552 135.405 104.331 134.98 103.84 133.965Z" fill="#FAB047"/>
<path d="M96.6184 136.724C96.2439 135.661 96.8026 134.496 97.8657 134.122C98.929 133.747 100.094 134.306 100.468 135.369C100.843 136.432 100.284 137.597 99.2209 137.972C98.1578 138.346 96.9926 137.787 96.6184 136.724Z" fill="#FAB047"/>
<path d="M89.1327 138.659C88.8798 137.56 89.5652 136.465 90.6635 136.212C91.762 135.959 92.8573 136.644 93.1104 137.742C93.3632 138.841 92.6779 139.937 91.5796 140.189C90.481 140.442 89.3855 139.757 89.1327 138.659Z" fill="#FAB047"/>
<path d="M81.4777 139.743C81.3493 138.623 82.1529 137.611 83.2728 137.483C84.3926 137.354 85.4045 138.158 85.533 139.278C85.6614 140.398 84.8578 141.41 83.7379 141.538C82.6181 141.666 81.6062 140.863 81.4777 139.743Z" fill="#FAB047"/>
<path d="M73.7498 139.964C73.7475 138.836 74.6588 137.921 75.7863 137.918C76.9132 137.916 77.8291 138.828 77.8314 139.955C77.8336 141.082 76.9218 141.998 75.7946 142C74.6677 142.003 73.752 141.091 73.7498 139.964Z" fill="#FAB047"/>
<path d="M66.0451 139.318C66.1687 138.198 67.1773 137.39 68.2977 137.514C69.418 137.638 70.226 138.646 70.1024 139.767C69.9785 140.887 68.9699 141.695 67.8495 141.571C66.7292 141.447 65.9215 140.439 66.0451 139.318Z" fill="#FAB047"/>
<path d="M58.4611 137.815C58.7094 136.716 59.8019 136.026 60.9015 136.274C62.001 136.522 62.6909 137.615 62.4426 138.715C62.1943 139.814 61.1014 140.504 60.002 140.256C58.9025 140.007 58.2128 138.915 58.4611 137.815Z" fill="#FAB047"/>
<path d="M51.0932 135.473C51.4628 134.408 52.626 133.845 53.6906 134.215C54.7555 134.584 55.319 135.747 54.9491 136.812C54.5794 137.877 53.4162 138.44 52.3516 138.071C51.2868 137.701 50.7236 136.538 51.0932 135.473Z" fill="#FAB047"/>
<path d="M44.0336 132.321C44.5201 131.304 45.739 130.874 46.7557 131.361C47.7724 131.848 48.2021 133.066 47.7154 134.083C47.2287 135.1 46.0101 135.529 44.9936 135.043C43.9766 134.556 43.5469 133.338 44.0336 132.321Z" fill="#FAB047"/>
<path d="M37.3711 128.399C37.9683 127.443 39.2274 127.152 40.1834 127.749C41.1393 128.347 41.4299 129.606 40.8327 130.562C40.2353 131.518 38.9761 131.808 38.0205 131.211C37.0645 130.613 36.7737 129.354 37.3711 128.399Z" fill="#FAB047"/>
<path d="M31.1889 123.756C31.8895 122.873 33.1732 122.725 34.0562 123.425C34.9394 124.126 35.0873 125.41 34.3868 126.293C33.6863 127.176 32.4025 127.324 31.5196 126.623C30.6363 125.923 30.4884 124.639 31.1889 123.756Z" fill="#FAB047"/>
<path d="M25.5654 118.451C26.3602 117.652 27.6526 117.648 28.4517 118.443C29.2508 119.238 29.2543 120.53 28.4593 121.329C27.6642 122.129 26.3721 122.132 25.573 121.337C24.7737 120.542 24.7704 119.25 25.5654 118.451Z" fill="#FAB047"/>
<path d="M20.5705 112.549C21.4499 111.844 22.7342 111.985 23.4393 112.865C24.1444 113.744 24.0032 115.029 23.1238 115.734C22.2444 116.439 20.9602 116.298 20.2548 115.418C19.5497 114.539 19.6911 113.254 20.5705 112.549Z" fill="#FAB047"/>
<path d="M16.2675 106.126C17.2201 105.524 18.4808 105.808 19.083 106.761C19.6855 107.714 19.4015 108.974 18.4486 109.576C17.496 110.179 16.235 109.895 15.6328 108.942C15.0303 107.989 15.3146 106.728 16.2675 106.126Z" fill="#FAB047"/>
<path d="M12.7103 99.2617C13.7245 98.7699 14.9452 99.193 15.4372 100.207C15.9292 101.221 15.5061 102.442 14.4919 102.934C13.4777 103.426 12.2565 103.003 11.7645 101.989C11.2727 100.975 11.6964 99.7537 12.7103 99.2617Z" fill="#FAB047"/>
<path d="M9.94337 92.0423C11.0062 91.6671 12.1722 92.2242 12.5474 93.287C12.9229 94.3496 12.3657 95.5158 11.3029 95.891C10.2398 96.2665 9.07384 95.7094 8.69837 94.6463C8.32289 93.5837 8.88053 92.4175 9.94337 92.0423Z" fill="#FAB047"/>
<path d="M8.00141 84.5589C9.09947 84.3047 10.1957 84.9888 10.4501 86.0871C10.704 87.1852 10.0199 88.2815 8.92161 88.5356C7.82356 88.7897 6.72728 88.1054 6.47316 87.0073C6.21904 85.9093 6.90336 84.813 8.00141 84.5589Z" fill="#FAB047"/>
<path d="M6.90937 76.9049C8.02896 76.7751 9.04188 77.578 9.1716 78.6979C9.30107 79.8175 8.49843 80.8299 7.37884 80.9599C6.25926 81.0896 5.24608 80.2869 5.11636 79.1671C4.98689 78.0475 5.78978 77.0346 6.90937 76.9049Z" fill="#FAB047"/>
<path d="M6.68011 69.1773C7.8073 69.1737 8.72395 70.085 8.7275 71.212C8.73105 72.3392 7.82022 73.2558 6.69303 73.2594C5.56585 73.2629 4.64894 72.3521 4.6454 71.2249C4.64185 70.0977 5.55292 69.1808 6.68011 69.1773Z" fill="#FAB047"/>
<path d="M7.31708 61.4722C8.43743 61.5949 9.24615 62.6025 9.12377 63.7231C9.00115 64.8434 7.99329 65.6527 6.87294 65.53C5.75234 65.4074 4.94362 64.3995 5.06625 63.2792C5.18887 62.1586 6.19673 61.3496 7.31708 61.4722Z" fill="#FAB047"/>
<path d="M8.81234 53.8871C9.91217 54.1343 10.6031 55.2263 10.3561 56.3259C10.1088 57.4257 9.01705 58.1166 7.91723 57.8696C6.8174 57.6223 6.12624 56.5306 6.37352 55.4308C6.62079 54.3309 7.71251 53.6398 8.81234 53.8871Z" fill="#FAB047"/>
<path d="M11.1468 46.5162C12.2119 46.8849 12.7767 48.0473 12.408 49.1124C12.0391 50.1775 10.877 50.7422 9.81162 50.3736C8.7465 50.005 8.18176 48.8426 8.55065 47.7774C8.91929 46.7121 10.0817 46.1473 11.1468 46.5162Z" fill="#FAB047"/>
<path d="M14.2915 39.453C15.3087 39.9384 15.7397 41.1571 15.2543 42.1743C14.7686 43.1913 13.5504 43.6225 12.5332 43.1371C11.516 42.6514 11.085 41.4328 11.5704 40.4155C12.0559 39.3985 13.2743 38.9673 14.2915 39.453Z" fill="#FAB047"/>
<path d="M18.2067 32.7864C19.1631 33.3828 19.4549 34.6414 18.8585 35.5981C18.2624 36.5546 17.0035 36.8467 16.047 36.2505C15.0904 35.6541 14.7985 34.3952 15.3946 33.4385C15.991 32.4821 17.2502 32.19 18.2067 32.7864Z" fill="#FAB047"/>
<path d="M22.8431 26.5998C23.7269 27.2993 23.8763 28.5834 23.1766 29.4671C22.477 30.3508 21.1935 30.5 20.3096 29.8002C19.4259 29.1007 19.2766 27.8175 19.9761 26.9335C20.6757 26.0498 21.9594 25.9003 22.8431 26.5998Z" fill="#FAB047"/>
<path d="M28.1426 20.9704C28.9424 21.7644 28.9472 23.0566 28.1532 23.8567C27.3592 24.6565 26.0668 24.6613 25.267 23.8673C24.4668 23.0733 24.4623 21.7809 25.2563 20.9811C26.0503 20.181 27.3425 20.1764 28.1426 20.9704Z" fill="#FAB047"/>
<path d="M34.0387 15.9696C34.7448 16.8482 34.605 18.133 33.7263 18.8388C32.8477 19.545 31.5632 19.4051 30.8568 18.5265C30.1509 17.6481 30.2908 16.3633 31.1694 15.6572C32.0481 14.9511 33.3326 15.0909 34.0387 15.9696Z" fill="#FAB047"/>
<path d="M40.4573 11.6592C41.0605 12.6114 40.7778 13.8723 39.8257 14.4756C38.8738 15.0791 37.6126 14.7963 37.0093 13.8442C36.4061 12.8921 36.6883 11.6311 37.6407 11.0276C38.5928 10.4244 39.8538 10.7071 40.4573 11.6592Z" fill="#FAB047"/>
<path d="M47.318 8.09503C47.8111 9.10872 47.389 10.3302 46.3753 10.8232C45.3616 11.316 44.1404 10.8941 43.6474 9.88045C43.1543 8.86676 43.5762 7.64558 44.5899 7.15229C45.6036 6.65926 46.825 7.0816 47.318 8.09503Z" fill="#FAB047"/>
<path d="M54.5344 5.32066C54.9109 6.38299 54.355 7.54971 53.2924 7.9262C52.2301 8.30269 51.0637 7.74656 50.6869 6.68423C50.3107 5.62165 50.8663 4.45519 51.9286 4.0787C52.9912 3.70221 54.1579 4.25833 54.5344 5.32066Z" fill="#FAB047"/>
<path d="M62.0158 3.37091C62.2712 4.46871 61.5881 5.566 60.4903 5.82113C59.3923 6.07652 58.2952 5.39346 58.0401 4.29566C57.7847 3.19761 58.4678 2.10082 59.5658 1.84544C60.6636 1.59031 61.7607 2.27311 62.0158 3.37091Z" fill="#FAB047"/>
<path d="M69.6685 2.27007C69.7992 3.3894 68.9978 4.40309 67.8782 4.53407C66.7587 4.6648 65.7447 3.86369 65.614 2.7441C65.483 1.62451 66.2849 0.610571 67.4045 0.479839C68.5241 0.348853 69.5375 1.15048 69.6685 2.27007Z" fill="#FAB047"/>
<path d="M46.9881 93.4317C44.9169 90.5445 44.2088 86.8969 45.0497 83.4444C45.8903 79.9916 48.1961 77.078 51.3628 75.4664V54.1253C51.3628 44.3145 61.5182 31.9185 74.045 31.9185H77.536C90.063 31.9185 100.218 44.3145 100.218 54.1253V75.4664C103.386 77.0775 105.692 79.9911 106.533 83.4438C107.373 86.8969 106.665 90.5445 104.593 93.4317H46.9881Z" fill="#3E2723"/>
<path d="M53.5835 82.995C52.357 82.995 51.3628 82.0009 51.3628 80.7744V67.206C51.3628 65.9795 52.357 64.9854 53.5835 64.9854C54.81 64.9854 55.8042 65.9795 55.8042 67.206V80.7744C55.8042 82.0009 54.81 82.995 53.5835 82.995Z" fill="#5F3D25"/>
<path d="M97.9977 82.995C96.7712 82.995 95.7765 82.0009 95.7765 80.7744V67.206C95.7765 65.9795 96.7712 64.9854 97.9977 64.9854C99.2242 64.9854 100.218 65.9795 100.218 67.206V80.7744C100.218 82.0009 99.2242 82.995 97.9977 82.995Z" fill="#5F3D25"/>
<path d="M115.741 107.422H35.8401C36.3286 96.9185 41.3253 95.3639 41.3253 95.3639L64.6869 87.436H86.894L110.256 95.3639C110.256 95.3639 115.252 96.9185 115.741 107.422Z" fill="#0F253B"/>
<path d="M111.321 107.422H40.2595C40.6147 97.4959 43.9013 94.7644 44.8559 94.165L64.6868 87.436H86.8938L106.724 94.165C107.679 94.7644 110.966 97.4959 111.321 107.422Z" fill="#0F253B"/>
<path d="M86.8942 78.1763V87.4365C86.8942 87.4365 86.894 96.3192 75.7903 96.3192C64.6869 96.3192 64.6869 87.4365 64.6869 87.4365V78.1763H86.8942Z" fill="#6E4221"/>
<path d="M51.3398 59.4727C51.3398 59.4727 50.8331 54.1522 51.1437 45.8147C51.5265 35.5379 57.7257 23.3836 75.5355 23.1158C92.3838 22.8625 100.339 34.7069 100.503 44.7761C100.618 51.8086 100.468 57.7572 100.365 58.5859" stroke="#7F8183" stroke-width="17" stroke-linecap="round"/>
<path d="M98.9526 54.1255C99.8779 54.1232 100.766 54.4898 101.421 55.1445C102.075 55.7987 102.442 56.6869 102.439 57.6122V63.9634C102.439 65.3989 101.557 66.687 100.218 67.2056C99.2901 67.5765 102.259 67.4496 52.6289 67.4496C50.707 67.4412 49.1511 65.8856 49.1425 63.9634V57.6122C49.1402 56.6869 49.5065 55.7987 50.161 55.1445C50.8154 54.4898 51.7037 54.1232 52.6289 54.1255H98.9526Z" fill="#537580"/>
<path d="M74.7046 43.3622C75.3578 42.9092 76.2233 42.9092 76.8762 43.3622C81.7619 46.8021 91.0133 51.4499 92.8299 52.6891C93.2958 53.0433 93.5656 53.5981 93.556 54.1836C93.556 63.9881 93.7247 64.4943 93.0561 66.3286C91.894 69.4956 90.4392 72.5475 88.7105 75.4444C78.2332 92.726 65.5376 85.4665 58.5247 66.3397C57.8584 64.5075 58.0248 64.1322 58.0248 54.1948C58.0152 53.6093 58.2848 53.0544 58.7509 52.7002C60.5675 51.4611 69.8235 46.7977 74.7046 43.3622Z" fill="#6E4221"/>
<path d="M75.7904 78.5535H58.0247C53.1189 78.5535 49.142 74.5768 49.142 69.6708V63.009C49.142 61.7825 50.1364 60.7881 51.3626 60.7881C52.5892 60.7881 53.5833 61.7825 53.5833 63.009V69.6708C53.5833 72.1238 55.5717 74.1122 58.0247 74.1122H75.7904C77.0169 74.1122 78.0111 75.1064 78.0111 76.3326C78.0111 77.5591 77.0169 78.5535 75.7904 78.5535Z" fill="#A3A3A2"/>
<path d="M78.931 76.1075C78.931 77.9694 76.5425 79.4792 73.5968 79.4792C70.651 79.4792 68.2631 77.9694 68.2631 76.1075C68.2631 74.2456 70.651 72.7363 73.5968 72.7363C76.5425 72.7363 78.931 74.2456 78.931 76.1075Z" fill="#537580"/>
<path d="M38.515 27.237C37.0519 20.481 28.1851 16.6679 18.7108 18.7196C9.2365 20.7716 2.74269 27.9117 4.20583 34.6675C5.66872 41.4235 14.535 45.2368 24.0093 43.1851C26.3336 42.6817 28.4778 41.8715 30.3698 40.8365L36.8125 42.4846L33.8267 38.4636C37.4745 35.3348 39.3775 31.2193 38.515 27.237Z" fill="#3B95ED"/>
<path d="M20.7741 32.7352C20.6064 31.933 20.5745 31.3399 20.6791 30.9566C20.7838 30.5735 21.0878 30.0546 21.5912 29.4005C21.936 28.8803 22.1952 28.3972 22.3685 27.9523C22.5418 27.5071 22.5773 27.049 22.4754 26.5788C22.3579 26.0354 22.1195 25.6454 21.7605 25.4096C21.4015 25.1737 20.9502 25.1144 20.407 25.2322C19.9419 25.333 19.5748 25.5456 19.3049 25.8709C19.0354 26.1965 18.9545 26.6079 19.0625 27.1066L17.0962 27.5327L17.0602 27.4874C16.8276 26.4942 16.994 25.6444 17.5593 24.9386C18.1248 24.2325 18.9507 23.762 20.0376 23.5266C21.2137 23.2717 22.1962 23.3726 22.9842 23.8294C23.7724 24.2862 24.2814 25.047 24.5119 26.1111C24.666 26.8228 24.6031 27.5269 24.3229 28.2236C24.0427 28.9206 23.6434 29.5892 23.1253 30.2292C22.8666 30.5786 22.7237 30.8879 22.6974 31.1575C22.6705 31.4273 22.7106 31.8056 22.8162 32.293L20.7741 32.7352ZM23.5993 35.7473L21.5155 36.1986L21.0916 34.2409L23.1755 33.7896L23.5993 35.7473Z" fill="#FCE6DD"/>
<path d="M25.2414 116.07L12.08 117.558C11.5205 117.621 11.0156 117.219 10.9523 116.659L8.25496 92.7941C8.19167 92.2345 8.59428 91.7297 9.15383 91.6667L22.3152 90.1789C22.8748 90.1156 23.3798 90.5182 23.4429 91.0778L26.1403 114.943C26.2033 115.502 25.8012 116.007 25.2414 116.07Z" fill="#A6A3A3"/>
<path d="M25.1063 114.874L11.9449 116.361C11.3853 116.425 10.8805 116.022 10.817 115.463L8.11983 91.598C8.05654 91.0382 8.45889 90.5334 9.01844 90.4704L22.1801 88.9826C22.7396 88.9193 23.2444 89.3219 23.3077 89.8815L26.0051 113.746C26.0682 114.306 25.6658 114.811 25.1063 114.874Z" fill="white"/>
<path d="M24.8139 111.814L11.5467 113.314L9.31079 93.5309L22.5777 92.0312L24.8139 111.814Z" fill="#C6C5C5"/>
<path d="M19.365 114.048C19.4277 114.603 19.029 115.103 18.4744 115.166C17.92 115.229 17.4196 114.83 17.3571 114.275C17.2943 113.721 17.693 113.221 18.2474 113.158C18.802 113.095 19.3022 113.494 19.365 114.048Z" fill="#C6C5C5"/>
<path d="M147.363 102.468L131.44 97.19C130.763 96.9656 130.396 96.2346 130.621 95.5579L137.552 74.648C137.776 73.9711 138.507 73.6042 139.184 73.8287L155.107 79.1066C155.784 79.3311 156.151 80.0618 155.926 80.739L148.995 101.649C148.771 102.326 148.04 102.692 147.363 102.468Z" fill="#0F253B"/>
<path d="M146.757 97.8718L153.188 78.4706L140.02 74.1055C138.881 73.728 137.652 74.3455 137.274 75.4841L130.898 94.7215C130.52 95.8604 131.138 97.0897 132.276 97.4669L146.527 102.191C147.665 102.568 148.895 101.951 149.272 100.812L149.901 98.9138L146.757 97.8718Z" fill="#F2F2F2"/>
<path d="M137.879 78.1399L135.203 77.2532C134.908 77.1554 134.749 76.8371 134.846 76.5425C134.944 76.2476 135.262 76.0882 135.557 76.186L138.233 77.0728C138.527 77.1706 138.687 77.4888 138.59 77.7834C138.492 78.0783 138.174 78.2377 137.879 78.1399Z" fill="#0F253B"/>
<path d="M137.127 80.4089L134.451 79.5219C134.157 79.4241 133.997 79.1059 134.095 78.8113C134.192 78.5166 134.51 78.3567 134.805 78.4545L137.481 79.3415C137.776 79.4393 137.935 79.7573 137.838 80.0522C137.74 80.3469 137.422 80.5067 137.127 80.4089Z" fill="#0F253B"/>
<path d="M136.375 82.6772L133.699 81.7904C133.405 81.6926 133.245 81.3744 133.342 81.0797C133.44 80.7848 133.759 80.6255 134.053 80.723L136.729 81.61C137.024 81.7078 137.183 82.026 137.086 82.3207C136.988 82.6156 136.67 82.7749 136.375 82.6772Z" fill="#0F253B"/>
<path d="M135.623 84.9455L132.947 84.0585C132.653 83.9607 132.493 83.6425 132.591 83.3479C132.688 83.0532 133.007 82.8933 133.301 82.9911L135.977 83.8781C136.272 83.9757 136.431 84.2939 136.334 84.5888C136.236 84.8835 135.918 85.0433 135.623 84.9455Z" fill="#0F253B"/>
<path d="M134.871 87.2141L132.195 86.3273C131.901 86.2296 131.741 85.9113 131.839 85.6164C131.936 85.3218 132.255 85.1619 132.549 85.2597L135.225 86.1467C135.52 86.2445 135.679 86.5627 135.582 86.8574C135.484 87.152 135.166 87.3119 134.871 87.2141Z" fill="#0F253B"/>
<path d="M134.119 89.4827L131.443 88.5959C131.149 88.4981 130.989 88.1797 131.087 87.885C131.185 87.5901 131.503 87.4305 131.797 87.5283L134.473 88.415C134.768 88.5128 134.927 88.831 134.83 89.126C134.732 89.4206 134.414 89.5802 134.119 89.4827Z" fill="#0F253B"/>
<path d="M133.367 91.7507L130.692 90.8637C130.397 90.7659 130.237 90.448 130.335 90.153C130.433 89.8584 130.751 89.6985 131.046 89.7963L133.721 90.6833C134.016 90.7811 134.176 91.0993 134.078 91.394C133.98 91.6886 133.662 91.8485 133.367 91.7507Z" fill="#0F253B"/>
<path d="M132.615 94.0194L129.94 93.1327C129.645 93.0349 129.485 92.7167 129.583 92.422C129.681 92.1271 129.999 91.9677 130.294 92.0653L132.969 92.9523C133.264 93.0501 133.424 93.3683 133.326 93.663C133.228 93.9579 132.91 94.1172 132.615 94.0194Z" fill="#0F253B"/>
<path d="M145.31 93.8091C145.31 93.8091 145.307 93.8108 145.306 93.8119C145.309 93.8173 145.312 93.8201 145.31 93.8091Z" fill="#0F253B"/>
<path d="M142.801 81.288C142.798 81.2757 142.796 81.2801 142.796 81.2873L142.801 81.288Z" fill="#0F253B"/>
<path d="M139.803 82.4232C139.109 83.3184 138.873 84.5018 138.926 85.633C138.962 86.3972 139.118 87.1466 139.313 87.8879C139.415 88.2735 139.493 88.665 139.548 89.06C139.654 89.8193 139.798 90.5712 140.06 91.29C140.447 92.3546 141.121 93.3554 142.106 93.914C143.091 94.4717 144.412 94.5044 145.306 93.8112C145.301 93.8023 145.293 93.7843 145.296 93.8018L144.644 90.5464C144.073 90.366 143.549 90.423 142.983 90.6191C142.503 89.7993 142.177 88.8925 142.012 87.9568C141.804 87.0301 141.755 86.0673 141.882 85.1261C142.48 85.0888 142.985 84.9396 143.443 84.553L142.79 81.2976C142.793 81.3148 142.794 81.2953 142.796 81.2854C141.704 80.99 140.497 81.5291 139.803 82.4232Z" fill="#0F253B"/>
<path d="M145.452 34.5597C143.855 41.1607 137.21 45.2175 130.609 43.6208C124.007 42.0239 119.951 35.3783 121.547 28.7773C123.144 22.1761 129.79 18.1193 136.391 19.7163C142.992 21.3129 147.049 27.9587 145.452 34.5597Z" fill="#EAEAEA"/>
<path d="M143.475 34.0816C142.142 39.5909 136.596 42.9765 131.087 41.6438C125.577 40.3111 122.192 34.7649 123.524 29.2556C124.857 23.7464 130.403 20.3607 135.913 21.6934C141.422 23.0261 144.808 28.5723 143.475 34.0816Z" fill="white"/>
<path d="M125.663 29.773C125.666 29.7616 125.669 29.7507 125.671 29.7393L124.359 29.4219C124.356 29.4333 124.352 29.4442 124.349 29.4556C124.268 29.7913 124.208 30.1272 124.164 30.4624L125.487 30.7824C125.525 30.4467 125.581 30.11 125.663 29.773Z" fill="#969696"/>
<path d="M141.337 33.5647C141.256 33.9017 141.152 34.227 141.032 34.5427L142.355 34.8629C142.469 34.545 142.569 34.2184 142.65 33.8824C142.653 33.871 142.654 33.8596 142.657 33.8482L141.344 33.5308C141.342 33.5422 141.34 33.5536 141.337 33.5647Z" fill="#969696"/>
<path d="M135.164 22.4043L134.846 23.7207C135.029 23.7519 135.212 23.7871 135.396 23.8317C135.558 23.871 135.717 23.9161 135.874 23.9645L136.193 22.648C136.035 22.6012 135.875 22.5578 135.713 22.5186C135.53 22.4742 135.347 22.4372 135.164 22.4043Z" fill="#969696"/>
<path d="M131.772 40.9223L132.09 39.6059C131.928 39.577 131.766 39.5448 131.604 39.5055C131.42 39.461 131.241 39.4088 131.064 39.353L130.745 40.669C130.923 40.7232 131.103 40.7744 131.286 40.8187C131.448 40.858 131.61 40.8919 131.772 40.9223Z" fill="#969696"/>
<path d="M129.995 33.0582L126.95 32.3219L127.078 31.7931L128.963 30.5294C129.271 30.3219 129.492 30.1438 129.625 29.9948C129.759 29.8463 129.846 29.69 129.885 29.5263C129.935 29.3209 129.917 29.1342 129.831 28.9667C129.745 28.7992 129.6 28.6908 129.397 28.6416C129.128 28.5765 128.91 28.6039 128.744 28.7235C128.577 28.8433 128.462 29.0351 128.398 29.2998L127.657 29.1207L127.656 29.1002C127.744 28.6908 127.96 28.3804 128.305 28.1694C128.649 27.9581 129.062 27.9109 129.545 28.0277C129.986 28.1344 130.305 28.3404 130.502 28.6457C130.699 28.9512 130.75 29.3001 130.655 29.6923C130.592 29.9548 130.457 30.1876 130.251 30.3911C130.045 30.5945 129.746 30.8299 129.352 31.0967L128.073 31.9236L128.078 31.9446L130.143 32.4443L129.995 33.0582Z" fill="#969696"/>
<path d="M133.591 32.1987L134.17 32.3388L134.022 32.9525L133.443 32.8123L133.196 33.8324L132.434 33.6482L132.681 32.6282L130.713 32.1521L130.807 31.6811L133.518 29.0586L134.305 29.2489L133.591 32.1987ZM131.599 31.7166L132.829 32.0143L133.279 30.1539L133.262 30.143L133.166 30.2631L131.599 31.7166Z" fill="#969696"/>
<path d="M134.549 34.5762L133.846 34.4064L136.855 29.8657L137.557 30.0357L134.549 34.5762Z" fill="#969696"/>
<path d="M140.922 31.4992C140.245 31.9907 139.754 32.463 139.449 32.9157C139.144 33.3685 138.864 33.9393 138.608 34.6284L138.444 35.1017L137.679 34.9167L137.844 34.4432C138.093 33.7705 138.408 33.182 138.79 32.6781C139.172 32.1739 139.636 31.7211 140.181 31.3201L137.754 30.733L137.903 30.1191L141.07 30.8853L140.922 31.4992Z" fill="#969696"/>
<path d="M127.922 34.928L127.694 34.8728L127.835 34.2871L127.22 34.1381L127.079 34.7241L126.85 34.6686L127.182 33.2954L127.411 33.3506L127.265 33.9544L127.88 34.1031L128.026 33.4994L128.254 33.5546L127.922 34.928Z" fill="#969696"/>
<path d="M128.277 34.4637C128.314 34.3122 128.385 34.1975 128.492 34.1202C128.6 34.0432 128.726 34.0219 128.87 34.0568C129.016 34.0923 129.119 34.1691 129.179 34.2864C129.239 34.4034 129.25 34.538 129.214 34.6902L129.209 34.71C129.172 34.8635 129.1 34.9786 128.993 35.0553C128.887 35.1313 128.76 35.1519 128.615 35.1166C128.47 35.0814 128.366 35.0052 128.306 34.8881C128.247 34.7711 128.235 34.6363 128.272 34.4835L128.277 34.4637ZM128.502 34.5385C128.478 34.6378 128.478 34.7234 128.501 34.7956C128.524 34.8671 128.578 34.9129 128.66 34.9327C128.74 34.9522 128.807 34.9352 128.862 34.8828C128.917 34.8298 128.957 34.7536 128.981 34.6545L128.986 34.6345C129.009 34.5375 129.008 34.4523 128.983 34.3799C128.959 34.3067 128.907 34.2603 128.825 34.2408C128.746 34.2215 128.678 34.2388 128.623 34.2925C128.569 34.3467 128.53 34.4219 128.507 34.5187L128.502 34.5385Z" fill="#969696"/>
<path d="M129.96 35.2627C129.915 35.309 129.864 35.3407 129.808 35.3579C129.752 35.3754 129.692 35.3764 129.628 35.361C129.518 35.3344 129.441 35.2789 129.396 35.194C129.352 35.1094 129.347 34.9936 129.383 34.8464L129.53 34.2363L129.758 34.2913L129.611 34.9037C129.589 34.9929 129.588 35.0587 129.608 35.1018C129.629 35.1446 129.668 35.173 129.727 35.1872C129.782 35.2004 129.83 35.2019 129.873 35.1912C129.915 35.1803 129.951 35.1588 129.982 35.1264L130.16 34.3883L130.389 34.4438L130.143 35.4646L129.943 35.4162L129.96 35.2627Z" fill="#969696"/>
<path d="M131.088 34.8321L130.991 34.8044C130.946 34.7938 130.907 34.7941 130.872 34.8057C130.838 34.8174 130.808 34.8384 130.784 34.8691L130.612 35.5787L130.383 35.5232L130.629 34.5024L130.839 34.5531L130.818 34.7049C130.857 34.659 130.899 34.6261 130.947 34.6061C130.995 34.5866 131.045 34.583 131.098 34.5957C131.112 34.5992 131.125 34.6035 131.136 34.6083C131.147 34.6137 131.158 34.619 131.167 34.6243L131.088 34.8321Z" fill="#969696"/>
<path d="M131.692 35.5459C131.701 35.5107 131.692 35.4778 131.668 35.4474C131.644 35.4167 131.592 35.3828 131.514 35.3453C131.398 35.2898 131.315 35.2308 131.264 35.1682C131.212 35.1056 131.197 35.0337 131.217 34.9518C131.237 34.8662 131.291 34.8021 131.378 34.7593C131.465 34.7162 131.568 34.7094 131.686 34.738C131.811 34.7681 131.902 34.8229 131.96 34.9017C132.019 34.9807 132.035 35.0651 132.01 35.155L132.007 35.1598L131.787 35.1069C131.798 35.0648 131.79 35.0245 131.765 34.9868C131.74 34.949 131.7 34.9232 131.644 34.9095C131.589 34.8961 131.543 34.8981 131.509 34.9161C131.474 34.9338 131.452 34.9607 131.443 34.9967C131.435 35.0324 131.442 35.0641 131.464 35.0919C131.486 35.1195 131.537 35.1517 131.616 35.1882C131.739 35.2457 131.824 35.306 131.875 35.3688C131.925 35.4322 131.94 35.5057 131.92 35.5885C131.898 35.6802 131.842 35.7456 131.752 35.7844C131.663 35.8234 131.556 35.8277 131.432 35.7978C131.299 35.7656 131.203 35.7063 131.143 35.6197C131.082 35.5335 131.065 35.4466 131.09 35.3595L131.093 35.3544L131.306 35.4058C131.295 35.4656 131.306 35.514 131.339 35.551C131.373 35.5877 131.419 35.6128 131.477 35.6268C131.536 35.641 131.584 35.6407 131.622 35.6258C131.659 35.6108 131.683 35.5842 131.692 35.5459Z" fill="#969696"/>
<path d="M134.91 36.6183L135.242 35.2451L135.687 35.3528C135.861 35.3949 135.99 35.4833 136.073 35.6186C136.155 35.7536 136.176 35.9069 136.135 36.0779L136.084 36.2867C136.043 36.4582 135.954 36.5849 135.819 36.6667C135.684 36.7485 135.529 36.7683 135.355 36.726L134.91 36.6183ZM135.427 35.4843L135.183 36.4899L135.393 36.5405C135.507 36.5679 135.605 36.5527 135.688 36.4942C135.771 36.4356 135.827 36.348 135.855 36.2304L135.906 36.0204C135.934 35.9041 135.925 35.801 135.877 35.711C135.83 35.6211 135.75 35.5623 135.636 35.535L135.427 35.4843Z" fill="#969696"/>
<path d="M136.764 37.0666C136.762 37.0387 136.762 37.0118 136.762 36.9862C136.763 36.9604 136.765 36.9348 136.769 36.91C136.726 36.9503 136.675 36.9804 136.616 37.0002C136.557 37.0202 136.496 37.0225 136.432 37.007C136.326 36.9814 136.251 36.9346 136.207 36.8659C136.164 36.7975 136.153 36.7154 136.176 36.6196C136.2 36.5211 136.258 36.4537 136.349 36.4175C136.44 36.3812 136.557 36.3805 136.698 36.4144L136.876 36.4577L136.898 36.3681C136.911 36.3143 136.906 36.269 136.881 36.231C136.857 36.1932 136.816 36.1674 136.758 36.1532C136.705 36.1405 136.661 36.1431 136.624 36.1608C136.587 36.1785 136.564 36.2072 136.554 36.2469L136.333 36.1932L136.334 36.1877C136.349 36.1061 136.402 36.0432 136.494 35.9997C136.585 35.9558 136.692 35.9487 136.815 35.9784C136.933 36.007 137.022 36.0605 137.08 36.1385C137.139 36.2165 137.154 36.3121 137.127 36.4253L137.017 36.8791C137.007 36.9211 137 36.9624 136.997 37.0025C136.993 37.0422 136.992 37.0825 136.996 37.1228L136.764 37.0666ZM136.523 36.8345C136.581 36.8484 136.636 36.8464 136.689 36.8289C136.743 36.8112 136.781 36.7856 136.805 36.7519L136.842 36.6011L136.66 36.5571C136.593 36.5408 136.537 36.5449 136.491 36.5687C136.445 36.5925 136.417 36.6267 136.406 36.6713C136.397 36.7106 136.402 36.7445 136.422 36.7737C136.442 36.8028 136.476 36.8231 136.523 36.8345Z" fill="#969696"/>
<path d="M137.624 36.8411L137.621 36.9485L137.627 36.9498L138.023 36.2908L138.274 36.3513L137.567 37.4248C137.523 37.4894 137.47 37.5409 137.409 37.5794C137.348 37.6176 137.272 37.6262 137.182 37.6044C137.164 37.5999 137.143 37.593 137.122 37.5839C137.102 37.5748 137.082 37.5654 137.063 37.5556L137.132 37.3845C137.14 37.3871 137.151 37.3906 137.166 37.3957C137.181 37.4007 137.192 37.404 137.199 37.4058C137.241 37.416 137.278 37.4096 137.31 37.3873C137.341 37.365 137.369 37.3372 137.394 37.304L137.454 37.2209L137.327 36.1226L137.577 36.1826L137.624 36.8411Z" fill="#969696"/>
<path d="M138.806 37.2668C138.814 37.2316 138.807 37.1986 138.781 37.1682C138.757 37.1376 138.706 37.1034 138.627 37.0659C138.512 37.0104 138.429 36.9516 138.378 36.889C138.326 36.8262 138.311 36.7545 138.33 36.6727C138.351 36.587 138.405 36.5229 138.492 36.4801C138.579 36.4373 138.681 36.43 138.8 36.4583C138.924 36.4887 139.016 36.5435 139.074 36.6225C139.132 36.7016 139.149 36.7857 139.124 36.8754L139.121 36.8807L138.901 36.8277C138.911 36.7857 138.904 36.7454 138.879 36.7076C138.855 36.6699 138.814 36.644 138.758 36.6304C138.703 36.6169 138.658 36.619 138.623 36.6369C138.588 36.6544 138.566 36.6815 138.557 36.7175C138.549 36.7535 138.555 36.7849 138.578 36.8128C138.6 36.8404 138.651 36.8726 138.731 36.9091C138.853 36.9663 138.939 37.0266 138.989 37.0897C139.039 37.1528 139.054 37.2265 139.034 37.3094C139.012 37.4011 138.956 37.4664 138.866 37.5052C138.777 37.544 138.67 37.5485 138.546 37.5186C138.413 37.4865 138.317 37.4269 138.257 37.3405C138.196 37.2541 138.179 37.1672 138.204 37.0803L138.207 37.0753L138.42 37.1267C138.409 37.1865 138.42 37.2349 138.453 37.2719C138.487 37.3083 138.533 37.3339 138.591 37.3476C138.65 37.3621 138.698 37.3615 138.736 37.3466C138.773 37.3317 138.797 37.305 138.806 37.2668Z" fill="#969696"/>
</g>
<defs>
<filter id="filter0_d_287_1475" x="0" y="0" width="159.992" height="150" filterUnits="userSpaceOnUse" color-interpolation-filters="sRGB">
<feFlood flood-opacity="0" result="BackgroundImageFix"/>
<feColorMatrix in="SourceAlpha" type="matrix" values="0 0 0 0 0 0 0 0 0 0 0 0 0 0 0 0 0 0 127 0" result="hardAlpha"/>
<feOffset dy="4"/>
<feGaussianBlur stdDeviation="2"/>
<feComposite in2="hardAlpha" operator="out"/>
<feColorMatrix type="matrix" values="0 0 0 0 0 0 0 0 0 0 0 0 0 0 0 0 0 0 0.25 0"/>
<feBlend mode="normal" in2="BackgroundImageFix" result="effect1_dropShadow_287_1475"/>
<feBlend mode="normal" in="SourceGraphic" in2="effect1_dropShadow_287_1475" result="shape"/>
</filter>
</defs>
</svg>
