<svg width="14" height="14" viewBox="0 0 14 14" fill="none" xmlns="http://www.w3.org/2000/svg">
<path d="M6.61875 13.9446C6.36675 13.9446 6.12975 13.8979 5.90775 13.8044C5.68575 13.7114 5.48275 13.5731 5.29875 13.3896L1.6035 9.70412L1.96425 9.35387C2.07775 9.24987 2.2065 9.18287 2.3505 9.15287C2.494 9.12237 2.63925 9.12537 2.78625 9.16187L4.875 9.67712V3.44462C4.875 3.33812 4.911 3.24912 4.983 3.17762C5.055 3.10562 5.144 3.06962 5.25 3.06962C5.356 3.06962 5.445 3.10562 5.517 3.17762C5.5885 3.24962 5.62425 3.33862 5.62425 3.44462V10.6836L2.8965 9.94637L5.8335 12.8684C5.9345 12.9694 6.05375 13.0491 6.19125 13.1076C6.32875 13.1656 6.471 13.1946 6.618 13.1946H9.375C9.903 13.1946 10.3475 13.0141 10.7085 12.6531C11.0695 12.2921 11.25 11.8476 11.25 11.3196V8.31962C11.25 8.21312 11.286 8.12412 11.358 8.05262C11.43 7.98112 11.519 7.94512 11.625 7.94462C11.731 7.94462 11.82 7.98062 11.892 8.05262C11.9635 8.12462 11.9993 8.21362 11.9993 8.31962V11.3196C11.9993 12.0486 11.744 12.6684 11.2335 13.1789C10.723 13.6894 10.1045 13.9446 9.378 13.9446H6.61875ZM6.99525 9.06962V6.06962C6.99525 5.96312 7.03125 5.87387 7.10325 5.80187C7.17525 5.73037 7.2645 5.69462 7.371 5.69462C7.477 5.69462 7.566 5.73062 7.638 5.80262C7.7095 5.87462 7.74525 5.96362 7.74525 6.06962V9.06962H6.99525ZM9.12975 9.06962V6.81962C9.12975 6.71312 9.16575 6.62387 9.23775 6.55187C9.30975 6.47987 9.399 6.44412 9.5055 6.44462C9.612 6.44462 9.701 6.48062 9.7725 6.55262C9.844 6.62462 9.87975 6.71362 9.87975 6.81962V9.06962H9.12975ZM13.5 3.73337H10.2112V3.06962H12.675C11.821 2.37362 10.895 1.80787 9.897 1.37237C8.899 0.936374 7.85 0.718374 6.75 0.718374C5.65 0.718374 4.601 0.936374 3.603 1.37237C2.605 1.80737 1.679 2.37312 0.825 3.06962H3.28875V3.73337H0V0.444624H0.66375V2.32412C1.55375 1.64412 2.51125 1.09587 3.53625 0.679374C4.56125 0.263374 5.6325 0.0553741 6.75 0.0553741C7.8675 0.0553741 8.93875 0.263374 9.96375 0.679374C10.9887 1.09587 11.9462 1.64412 12.8362 2.32412V0.444624H13.5V3.73337Z" fill="black"/>
</svg>
